<svg width="15" height="14" viewBox="0 0 15 14" fill="none" xmlns="http://www.w3.org/2000/svg">
<path d="M0.00868344 6.9897C-0.00180936 6.06203 -0.0104188 5.13382 0.0307452 4.20668C0.0603403 3.54402 0.110921 2.88298 0.279344 2.23726C0.570452 1.12099 1.30414 0.480931 2.41718 0.240404C2.98487 0.117719 3.55982 0.0617574 4.1372 0.0399646C5.8938 -0.0264898 7.65148 0.0117148 9.40862 0.00445052C9.71426 0.00310528 9.94967 0.242018 9.95102 0.538507C9.95236 0.840646 9.71479 1.07794 9.40082 1.07875C8.0155 1.08225 6.63018 1.0801 5.24486 1.08709C4.50956 1.09059 3.77479 1.11346 3.04514 1.21677C2.76103 1.25686 2.48202 1.32062 2.21325 1.42528C1.69076 1.62895 1.43839 2.04328 1.30845 2.56173C1.17903 3.07803 1.1298 3.6051 1.11258 4.1327C1.05097 6.02813 1.05016 7.92409 1.11312 9.81952C1.13195 10.3872 1.18764 10.953 1.33427 11.5078C1.50593 12.1567 1.92349 12.5251 2.56462 12.6784C3.08657 12.8035 3.61686 12.8571 4.1493 12.8745C6.045 12.9364 7.94124 12.9372 9.83667 12.8737C10.3912 12.8552 10.9435 12.7984 11.4857 12.6577C12.1456 12.4866 12.5207 12.0628 12.674 11.4109C12.8064 10.8492 12.85 10.2785 12.8761 9.70572C12.9167 8.81006 12.9078 7.91333 12.9108 7.01687C12.9121 6.62299 13.2665 6.36497 13.6273 6.49008C13.8334 6.56164 13.9848 6.75778 13.9846 6.97947C13.9832 8.23861 14.009 9.49909 13.8775 10.7542C13.8212 11.2896 13.722 11.8167 13.4919 12.3109C13.2049 12.9278 12.734 13.343 12.1042 13.584C11.5373 13.8009 10.9422 13.8845 10.3419 13.9182C8.24553 14.0357 6.14751 14.0094 4.05056 13.9464C3.35696 13.9257 2.66578 13.852 1.99909 13.6292C1.04478 13.3101 0.502114 12.6316 0.266699 11.6765C0.0560356 10.8212 0.0283238 9.94732 0.0113739 9.074C-0.00207841 8.37932 0.00868344 7.68437 0.00868344 6.9897Z" fill="#8C9B47"/>
<path d="M14.5245 1.6238C14.524 1.77581 14.4624 1.90226 14.3572 2.00746C13.2301 3.13476 12.1026 4.26153 10.9753 5.38856C9.83208 6.5312 8.6889 7.67411 7.54572 8.81702C7.31138 9.05135 7.07973 9.28812 6.84297 9.52003C6.61213 9.74603 6.28954 9.74442 6.0622 9.51734C4.99409 8.45084 3.92651 7.38381 2.86001 6.31569C2.63401 6.08943 2.6289 5.7628 2.84145 5.54488C3.05669 5.32426 3.39111 5.32614 3.62195 5.55644C4.52891 6.46098 5.43532 7.36632 6.33797 8.27516C6.42434 8.36233 6.46846 8.37901 6.56532 8.28161C8.6593 6.18198 10.7571 4.08611 12.8543 1.9897C13.1045 1.73949 13.3523 1.48658 13.6054 1.23933C13.776 1.07279 13.9792 1.03405 14.2003 1.12391C14.3981 1.20409 14.5261 1.40775 14.5245 1.6238Z" fill="#8C9B47"/>
</svg>
