<svg width="48" height="46" viewBox="0 0 48 46" fill="none" xmlns="http://www.w3.org/2000/svg">
<path d="M32.0214 18.3248C32.222 18.3248 32.4282 18.3248 32.6344 18.3248C35.8254 18.3259 39.0164 18.3202 42.2073 18.3316C43.3314 18.335 44.4249 18.5253 45.4413 19.0364C48.2606 20.4528 48.8601 23.8795 46.6878 26.1696C46.4283 26.4427 46.0079 26.667 45.9354 26.9786C45.8753 27.2359 46.23 27.5826 46.3819 27.8988C47.1558 29.5135 46.8476 31.0478 45.3394 32.4325C44.7683 32.9572 44.5892 33.339 44.8181 34.1538C45.4481 36.3985 44.4884 38.3056 42.375 39.3413C42.0509 39.5 41.9671 39.645 42.0022 40.0133C42.2436 42.5402 40.077 44.8915 37.3586 45.0842C37.0197 45.108 36.6798 45.1091 36.3399 45.1102C32.3183 45.1114 28.2945 45.032 24.2763 45.1397C21.738 45.2077 19.4241 44.657 17.2281 43.4422C16.7012 43.151 16.1335 42.9368 15.5907 42.6728C15.2711 42.5176 15.1125 42.5278 15.0071 42.9391C14.6309 44.3986 13.5907 45.2009 12.0915 45.2065C9.12718 45.2179 6.16285 45.219 3.19852 45.2065C1.42287 45.1986 0.177534 43.9895 0.174134 42.2241C0.159403 35.2586 0.159403 28.2931 0.174134 21.3276C0.177534 19.5678 1.43647 18.335 3.18719 18.3282C6.15152 18.3168 9.11585 18.3236 12.0802 18.3259C13.1567 18.327 14.019 18.7565 14.6218 19.6573C14.7578 19.8602 14.8349 19.9724 15.0819 19.7695C17.5828 17.7015 19.8502 15.4329 21.5601 12.6386C22.4735 11.1462 22.8009 9.50089 23.091 7.82382C23.3902 6.09576 23.7301 4.37563 24.0338 2.64871C24.146 2.00961 24.4599 1.56655 25.0276 1.22773C26.2877 0.47532 27.6542 0.269086 29.0639 0.45039C30.648 0.653225 31.422 1.8317 31.9614 3.17676C32.7806 5.22323 32.9336 7.38982 33.0356 9.56208C33.1648 12.302 32.7489 14.9797 32.12 17.6335C32.0769 17.8171 32.0339 18.0007 31.9965 18.1854C31.9885 18.2171 32.0078 18.2556 32.0214 18.3248ZM15.0966 31.39C15.0966 33.8818 15.0955 36.3748 15.0978 38.8666C15.0978 39.1011 15.0332 39.3436 15.3901 39.4343C16.9403 39.8263 18.3171 40.6263 19.738 41.3221C20.8383 41.8615 21.9771 42.1516 23.2236 42.1414C27.6044 42.1085 31.9851 42.1289 36.3671 42.1278C36.6696 42.1278 36.9722 42.1334 37.2724 42.1062C38.5359 41.9918 39.1342 41.2824 39.0096 40.0348C38.9699 39.6416 38.8827 39.253 38.8181 38.862C38.7059 38.1878 38.8589 37.8818 39.4798 37.5986C39.9422 37.3878 40.426 37.219 40.8793 36.9901C41.617 36.6172 42.0136 36.0507 41.9286 35.1679C41.8617 34.4688 41.5592 33.8705 41.2951 33.2461C40.9722 32.4824 41.1444 31.9985 41.8538 31.5838C42.2119 31.3741 42.5847 31.1883 42.9337 30.9639C43.6204 30.5209 43.8821 29.8784 43.8005 29.0704C43.7269 28.3384 43.3269 27.7741 42.9155 27.2053C42.4124 26.5095 42.4849 26.0959 43.1773 25.5781C43.5694 25.2846 43.9977 25.0353 44.3377 24.6761C45.3144 23.6438 45.0345 22.2319 43.7416 21.654C43.1082 21.3707 42.4385 21.2959 41.7518 21.2959C37.4084 21.2993 33.065 21.3004 28.7217 21.2947C27.7834 21.2936 27.1069 20.6828 27.0809 19.8488C27.0571 19.0511 27.7007 18.3735 28.5902 18.3383C28.946 18.3248 29.0174 18.1616 29.0967 17.8817C30.1347 14.2386 30.4463 10.5434 29.9058 6.78812C29.7664 5.81814 29.5795 4.85609 29.1568 3.95637C28.9619 3.5405 28.6956 3.28101 28.1936 3.36826C27.9534 3.41019 27.7064 3.41359 27.4627 3.43058C27.1137 3.45551 26.9471 3.63002 26.8871 3.98696C26.7103 5.02833 26.5098 6.0663 26.299 7.102C26.0214 8.46632 25.9182 9.87143 25.4695 11.1961C24.8644 12.9797 23.8978 14.5785 22.7726 16.08C20.7171 18.8222 18.2105 21.1044 15.5046 23.1803C15.2054 23.4103 15.0864 23.646 15.0887 24.0245C15.1057 26.4812 15.0966 28.9356 15.0966 31.39ZM12.1232 31.7979C12.1232 28.4755 12.1164 25.1543 12.1323 21.8319C12.1346 21.4273 12.062 21.2823 11.6144 21.2857C8.97194 21.3095 6.32829 21.3061 3.68578 21.2879C3.27444 21.2845 3.14186 21.3718 3.143 21.8115C3.15773 28.4551 3.15659 35.0988 3.14526 41.7425C3.14413 42.1312 3.23365 42.2479 3.63705 42.2456C6.27956 42.2264 8.92321 42.2207 11.5657 42.249C12.062 42.2547 12.1368 42.0972 12.1334 41.6496C12.1142 38.3668 12.1232 35.083 12.1232 31.7979Z" fill="white"/>
</svg>
