<svg width="81" height="52" viewBox="0 0 81 52" fill="none" xmlns="http://www.w3.org/2000/svg">
<path d="M55.3606 0.638508C62.1373 0.638508 68.9158 0.71855 75.6908 0.602933C78.9087 0.547793 80.4998 3.08602 80.4892 5.42681C80.427 18.4061 80.459 31.3872 80.459 44.3682C80.459 45.8855 80.0985 46.3337 78.5837 46.211C76.9357 46.0776 75.9199 46.3124 75.2255 48.1818C74.2044 50.9281 71.4145 52.2337 68.4435 51.958C65.8738 51.7179 63.4781 49.7168 62.7287 47.0541C62.5351 46.3639 62.2546 46.2199 61.5922 46.2234C52.981 46.2465 44.368 46.2465 35.7568 46.2341C32.5922 46.2305 29.4276 46.1914 26.2648 46.1345C25.6894 46.1238 25.471 46.2981 25.3183 46.8638C24.4871 49.9338 21.9246 51.9455 18.8683 51.9989C15.812 52.0523 13.1837 50.1277 12.2745 47.0665C12.0596 46.3444 11.779 46.0971 11.0261 46.1274C9.6391 46.1843 8.24149 46.1914 6.85632 46.0989C3.52656 45.8801 0.963982 43.1943 0.912481 39.8396C0.859205 36.3142 0.855654 32.7852 0.919585 29.2598C0.953326 27.4135 1.73648 25.8322 3.07549 24.5373C7.65546 20.1154 12.2319 15.6918 16.7994 11.2574C18.1171 9.97854 19.6408 9.30974 21.5037 9.34176C24.1071 9.38623 26.7123 9.33109 29.3157 9.36666C29.9728 9.37556 30.2019 9.2048 30.1699 8.52711C30.1167 7.40296 30.1451 6.27526 30.1593 5.14933C30.1948 2.43323 31.9707 0.647401 34.6735 0.642065C41.5692 0.631393 48.4649 0.638508 55.3606 0.638508ZM55.3287 29.443C62.5476 29.443 69.7683 29.4359 76.9872 29.4555C77.6336 29.4573 77.9088 29.3648 77.9053 28.6035C77.8733 20.9301 77.8893 13.2549 77.884 5.58156C77.8822 3.74948 77.3264 3.20697 75.4919 3.20697C62.029 3.20697 48.5662 3.20697 35.1033 3.20697C33.2884 3.20697 32.7307 3.76727 32.7307 5.6029C32.7343 13.2478 32.752 20.8927 32.729 28.5359C32.7272 29.29 32.9456 29.4626 33.6702 29.459C40.8891 29.4323 48.1098 29.443 55.3287 29.443ZM55.3287 32.0631C48.0778 32.0631 40.8287 32.072 33.5778 32.0488C32.919 32.0471 32.7236 32.2089 32.7307 32.8848C32.7663 36.1737 32.7698 39.4643 32.729 42.7531C32.7201 43.4913 32.9154 43.6905 33.6577 43.6887C42.9793 43.6638 52.3008 43.6656 61.6223 43.6852C62.2457 43.687 62.5263 43.5393 62.7163 42.8919C63.7037 39.5088 66.8629 37.4739 70.2584 38.004C73.1673 38.4576 74.9627 40.2576 75.792 42.9826C76.1383 44.1245 76.9037 43.614 77.488 43.6407C78.177 43.6727 77.868 43.0253 77.8716 42.6891C77.8964 39.4892 77.8627 36.2875 77.9035 33.0876C77.9142 32.3068 77.7543 32.0399 76.9019 32.0435C69.7114 32.0791 62.5209 32.0631 55.3287 32.0631ZM30.122 27.7764C30.122 22.7711 30.1113 17.7658 30.1344 12.7622C30.138 12.1254 30.0083 11.896 29.3122 11.9084C26.6803 11.9529 24.0485 11.9387 21.4167 11.9209C20.3494 11.9138 19.4774 12.2891 18.7138 13.029C14.1711 17.4385 9.62845 21.8497 5.05558 26.2289C3.97408 27.2641 3.47506 28.4718 3.48572 29.9411C3.49815 31.5401 3.47861 33.1392 3.48927 34.7383C3.49992 36.5134 3.4431 38.2957 3.57273 40.0637C3.72723 42.1786 5.31664 43.5393 7.42815 43.55C8.69967 43.5553 9.97297 43.518 11.2427 43.566C11.8341 43.5891 12.1005 43.4362 12.2727 42.8314C12.8676 40.7468 14.212 39.2597 16.1938 38.4113C19.8504 36.8443 24.0645 38.8738 25.2401 42.7816C25.4301 43.4148 25.6983 43.5998 26.3234 43.566C27.2966 43.5144 28.2769 43.5091 29.25 43.5678C29.9373 43.6087 30.1415 43.4148 30.138 42.7016C30.106 37.7265 30.122 32.7514 30.122 27.7764ZM65.0214 44.9605C65.0214 47.4436 66.8789 49.4127 69.2302 49.418C71.5761 49.4233 73.4834 47.4436 73.494 44.9961C73.5029 42.4757 71.624 40.5031 69.2231 40.512C66.8399 40.5209 65.0214 42.4472 65.0214 44.9605ZM14.5636 44.8289C14.3025 46.8869 16.1157 49.4127 18.6996 49.4215C21.0082 49.4287 22.9333 47.5468 22.9617 45.2167C22.9936 42.4881 21.3066 40.5511 18.8647 40.512C16.4496 40.4746 14.6009 42.3298 14.5636 44.8289Z" fill="#8C9B47"/>
<path d="M18.2325 30.7415C16.4584 30.7415 14.6843 30.7379 12.9102 30.7432C11.5357 30.7468 10.3974 30.2861 9.76162 29.0072C9.09744 27.6714 9.50056 26.3818 10.4027 25.3875C12.9635 22.5594 15.6024 19.8006 18.2627 17.0631C19.2678 16.0297 20.5625 15.5388 22.0382 15.6046C22.7166 15.6348 23.3985 15.5957 24.0787 15.617C25.9753 15.674 27.4564 16.9706 27.5203 18.8703C27.6144 21.6807 27.6162 24.4982 27.5256 27.3068C27.4582 29.3487 25.8847 30.6988 23.7359 30.7343C21.8997 30.7646 20.0652 30.7415 18.2325 30.7415ZM18.2627 28.125C20.067 28.125 21.8713 28.1072 23.6738 28.1339C24.4747 28.1463 24.9613 27.787 24.9719 27.0168C25.0092 24.4128 25.0039 21.807 24.9773 19.2029C24.9719 18.616 24.6487 18.2389 23.9846 18.1748C21.9689 17.981 20.1433 18.2353 18.9073 20.0958C18.7617 20.3146 18.5468 20.4872 18.3657 20.681C16.4389 22.7266 14.5103 24.7703 12.5852 26.8176C12.3029 27.1182 11.9442 27.4544 12.1502 27.8902C12.3277 28.2673 12.7824 28.1196 13.1198 28.1214C14.8317 28.1339 16.5472 28.1267 18.2627 28.125Z" fill="#8C9B47"/>
</svg>
