<svg width="78" height="73" viewBox="0 0 78 73" fill="none" xmlns="http://www.w3.org/2000/svg">
<path d="M5.43878 17.3161C8.7791 18.7071 11.97 20.041 15.1642 21.3665C22.9986 24.618 30.838 27.8577 38.6674 31.126C39.1494 31.3279 39.5155 31.3211 39.9907 31.121C43.8735 29.4843 47.7697 27.8796 51.6643 26.2681C51.9212 26.1622 52.1798 26.0427 52.4502 25.9805C53.1656 25.819 53.7484 26.0192 54.0121 26.7459C54.2673 27.4523 54.0289 28.0478 53.3521 28.3539C51.9279 28.9965 50.4836 29.592 49.0394 30.1925C46.1273 31.4019 43.2034 32.5878 40.2981 33.8157C39.6314 34.0983 39.0436 34.0983 38.3718 33.8174C26.4481 28.8468 14.5176 23.8913 2.58884 18.9359C2.27983 18.8081 1.9641 18.6937 1.65341 18.5675C1.08913 18.3388 0.711267 17.9452 0.706229 17.3144C0.701191 16.6853 1.06058 16.2799 1.62654 16.0444C2.99189 15.4758 4.35557 14.9039 5.72092 14.3371C16.6471 9.80047 27.5733 5.2706 38.4927 0.722221C39.0839 0.476635 39.5894 0.478317 40.1738 0.720539C52.3041 5.7685 64.4411 10.8064 76.5782 15.8459C76.7075 15.8997 76.8334 15.9586 76.9627 16.0124C77.5556 16.2563 77.9519 16.6617 77.9368 17.3346C77.9217 18.0108 77.485 18.3674 76.8972 18.6113C73.1824 20.1436 69.4726 21.6861 65.7611 23.2252C64.1372 23.8981 62.53 24.613 60.8875 25.2337C60.1536 25.5112 59.8681 25.8863 59.9168 26.6903C59.9924 27.9553 59.942 27.9738 61.1243 27.486C65.6889 25.602 70.2468 23.703 74.8131 21.8224C75.1792 21.671 75.3959 21.5263 75.4244 21.0654C75.4714 20.2934 75.9719 19.8913 76.689 19.9065C77.4128 19.9216 77.8965 20.4178 77.9402 21.2034C77.9553 21.4826 77.92 21.7652 77.9469 22.0427C78.0359 22.9595 77.616 23.4944 76.778 23.8342C73.3907 25.2084 70.0167 26.6163 66.6378 28.0108C64.5755 28.8636 62.5165 29.7248 60.4475 30.5608C60.0898 30.7055 59.9269 30.8737 59.9269 31.2858C59.9403 36.2732 59.937 41.2623 59.9387 46.2497C59.9387 46.3523 59.9051 46.4785 60.1385 46.5744C61.2536 45.0386 62.6375 43.6862 62.5149 41.4709C62.3839 39.1244 62.4813 36.7644 62.488 34.4111C62.4914 33.4103 63.0036 32.7829 63.7878 32.7862C64.5704 32.7896 65.0776 33.4086 65.081 34.4196C65.0911 37.1933 65.1246 39.9688 65.0726 42.7425C65.0407 44.4583 63.9373 45.7384 63.0405 47.0739C62.3184 48.1471 61.4048 49.0638 60.3988 49.8763C60.0629 50.1471 59.9202 50.428 59.9252 50.867C59.9487 52.9125 59.9471 54.9579 59.9269 57.0033C59.9235 57.4255 60.0663 57.624 60.4425 57.8292C62.1001 58.7342 62.8306 60.4701 62.3604 62.2413C61.9204 63.9033 60.382 65.0975 58.6573 65.1144C56.9225 65.1312 55.3304 63.8999 54.8988 62.206C54.4453 60.4247 55.1742 58.7275 56.862 57.8208C57.2684 57.6021 57.3356 57.3599 57.3356 56.968C57.3289 46.7964 57.3255 36.6231 57.344 26.4515C57.3457 25.9065 57.1542 25.6794 56.6638 25.4977C52.1664 23.8291 47.674 22.1437 43.19 20.438C42.7685 20.2782 42.4662 20.3758 42.0934 20.5457C39.9572 21.5146 37.8546 21.4355 35.8611 20.1773C33.7669 18.8552 33.599 16.3505 35.453 14.7139C37.5019 12.9073 41.5022 13.0166 43.4167 14.9224C44.1758 15.6777 44.5822 16.5692 44.4496 17.6441C44.4009 18.0309 44.4966 18.1823 44.8526 18.3152C49.2728 19.9586 53.6863 21.6172 58.1014 23.274C58.3768 23.3783 58.6371 23.3766 58.9125 23.2622C63.6266 21.3026 68.3407 19.3463 73.2311 17.3161C72.2134 16.8737 71.3451 16.4817 70.4668 16.1167C60.3921 11.9317 50.314 7.75336 40.2443 3.55655C39.6398 3.30423 39.1208 3.25545 38.4978 3.51617C27.6354 8.05109 16.763 12.5675 5.89222 17.089C5.79313 17.1293 5.70076 17.1832 5.43878 17.3161ZM39.3375 18.5827C40.0462 18.5658 40.7297 18.438 41.3292 18.041C42.0161 17.5852 42.0195 17.057 41.3679 16.5793C40.3401 15.8274 38.2576 15.8358 37.2533 16.5961C36.637 17.0621 36.632 17.5583 37.2718 18.0091C37.8865 18.4414 38.5985 18.5675 39.3375 18.5827ZM59.9151 61.259C59.9353 60.5576 59.371 59.9621 58.6707 59.9453C57.9603 59.9268 57.3809 60.4752 57.3574 61.1867C57.3339 61.8881 57.8982 62.4886 58.5985 62.5054C59.3038 62.5239 59.895 61.9638 59.9151 61.259Z" fill="#8C9B47"/>
<path d="M38.0207 48.7056C38.0207 47.0252 38.0174 45.3431 38.0241 43.6627C38.0258 43.3851 38.0459 43.1025 38.103 42.8317C38.234 42.1959 38.6874 41.8561 39.2904 41.8427C39.9386 41.8275 40.4072 42.1858 40.5482 42.8519C40.612 43.1496 40.6188 43.4625 40.6204 43.7687C40.6255 47.1581 40.6439 50.5492 40.607 53.9386C40.5986 54.6383 40.832 54.7628 41.4618 54.7157C45.3597 54.423 49.1451 53.6896 52.7054 51.9974C53.5669 51.587 54.3025 51.809 54.6468 52.5122C54.9944 53.222 54.714 53.9117 53.8306 54.3389C51.068 55.6745 48.1492 56.5071 45.1179 56.9344C40.0545 57.6476 35.0079 57.5366 30.0503 56.2515C23.1715 54.4684 17.5975 50.8385 14.0574 44.4684C13.7064 43.8359 13.5468 43.1951 13.5535 42.4701C13.5787 39.7249 13.567 36.978 13.5653 34.2329C13.5653 33.4928 13.8877 32.9881 14.6284 32.8367C15.2951 32.7005 15.7804 33.0201 16.0441 33.6088C16.1617 33.8746 16.1516 34.2093 16.1533 34.5121C16.1617 37.0336 16.1701 39.555 16.1482 42.0765C16.1432 42.6585 16.2658 43.1698 16.5614 43.6677C18.8957 47.6105 22.2596 50.3658 26.401 52.2195C29.8874 53.7805 33.5737 54.4651 37.3624 54.7073C37.883 54.7409 38.0375 54.6148 38.0291 54.0866C38.0023 52.2918 38.0207 50.4987 38.0207 48.7056Z" fill="#8C9B47"/>
<path d="M0.696045 21.8141C0.696045 20.6299 0.981543 20.0849 1.68185 19.9318C2.48461 19.7569 3.15301 20.1942 3.22354 21.0336C3.26049 21.476 3.43347 21.6492 3.81301 21.8073C13.6325 25.878 23.4452 29.9604 33.2613 34.0412C35.0633 34.7897 36.8737 35.5214 38.6639 36.2969C39.1358 36.5021 39.5221 36.5038 39.999 36.3019C44.1102 34.566 48.2331 32.8587 52.3527 31.1413C53.6089 30.6181 54.3848 30.7796 54.7022 31.6307C55.0062 32.4449 54.5678 33.0487 53.3402 33.5567C48.9335 35.3835 44.5267 37.2119 40.1284 39.0555C39.5742 39.2876 39.0871 39.2843 38.5279 39.0521C27.9695 34.6551 17.4027 30.2733 6.83929 25.8881C5.24218 25.2253 3.64507 24.5609 2.053 23.8881C0.805206 23.3633 0.696045 23.185 0.696045 21.8141Z" fill="#8C9B47"/>
<path d="M65.0725 71.3112C65.0674 72.1977 64.7249 72.6687 64.0363 72.8217C63.3309 72.9782 62.77 72.6535 62.5836 71.9975C62.0748 70.1993 61.6213 68.3844 61.2115 66.561C61.0671 65.9151 61.4467 65.397 62.0697 65.1968C62.7163 64.9899 63.4166 65.1346 63.6215 65.8141C64.1841 67.6812 64.6258 69.5854 65.0725 71.3112Z" fill="#8C9B47"/>
<path d="M52.215 71.2506C52.6466 69.5736 53.0833 67.6964 53.6257 65.8511C53.8272 65.1665 54.499 64.9899 55.1539 65.1867C55.819 65.3852 56.2069 65.9167 56.0541 66.6013C55.6511 68.3978 55.1993 70.1859 54.7039 71.9605C54.5208 72.6165 53.98 72.9495 53.2713 72.8385C52.5929 72.7309 52.1764 72.1623 52.215 71.2506Z" fill="#8C9B47"/>
<path d="M59.9335 69.6392C59.9335 70.2548 59.962 70.8722 59.9268 71.4844C59.8797 72.307 59.3323 72.8738 58.6437 72.8772C57.9551 72.8806 57.3758 72.3188 57.3489 71.4979C57.3086 70.2414 57.3069 68.9798 57.3506 67.7233C57.3791 66.9125 57.9803 66.3541 58.6706 66.3759C59.3323 66.3961 59.8529 66.9344 59.9251 67.7081C59.957 68.0412 59.9368 68.3793 59.9385 68.714C59.9402 69.0219 59.9385 69.3297 59.9385 69.6375C59.9352 69.6392 59.9352 69.6392 59.9335 69.6392Z" fill="#8C9B47"/>
</svg>
