<svg width="66" height="46" viewBox="0 0 66 46" fill="none" xmlns="http://www.w3.org/2000/svg">
<path d="M21.2658 43.2775C21.5521 41.6043 21.8588 39.8088 22.1654 38.0146C22.4212 36.5131 22.6591 35.0091 22.9416 33.5127C23.0154 33.1208 22.8958 32.8879 22.6312 32.6321C20.3776 30.4499 18.1406 28.2511 15.8846 26.0726C15.3094 25.5178 14.9442 24.9147 15.2025 24.1003C15.4596 23.2898 16.0844 23.0047 16.8898 22.894C20.015 22.4627 23.1338 21.9842 26.2589 21.5452C26.6419 21.4918 26.8468 21.3429 27.0148 21.0006C28.4056 18.149 29.8193 15.3089 31.2139 12.4586C31.5434 11.7842 32.0028 11.2854 32.7854 11.2472C33.5959 11.2078 34.1291 11.6442 34.479 12.3568C35.8685 15.1855 37.2797 18.004 38.6501 20.8416C38.8855 21.3276 39.1757 21.493 39.6999 21.5643C42.8683 21.9957 46.0304 22.469 49.1924 22.9462C49.8694 23.048 50.3415 23.4437 50.5514 24.1232C50.7817 24.8651 50.5094 25.4415 49.9877 25.9492C47.71 28.1671 45.4425 30.3964 43.1495 32.5978C42.8136 32.921 42.7436 33.2137 42.8212 33.6539C43.376 36.7804 43.9016 39.9119 44.4462 43.0409C44.5607 43.6949 44.4436 44.265 43.9576 44.732C43.3811 45.2855 42.6991 45.344 41.8465 44.8974C39.0535 43.434 36.2566 41.9745 33.4789 40.4807C33.0259 40.2376 32.695 40.2593 32.2573 40.4934C29.477 41.9809 26.6865 43.4493 23.8896 44.905C22.5599 45.5947 21.2149 44.8121 21.2658 43.2775ZM40.5665 40.4107C40.1249 37.7881 39.7139 35.3069 39.2838 32.8294C39.1642 32.141 39.3589 31.5913 39.8564 31.1128C41.1683 29.848 42.4688 28.573 43.773 27.3005C44.2668 26.8183 44.7554 26.3322 45.2618 25.8334C45.1677 25.78 45.1359 25.7507 45.1015 25.7456C42.7335 25.402 40.3679 25.0458 37.9974 24.7289C37.1461 24.6144 36.5429 24.2517 36.1854 23.4475C35.8164 22.6179 35.3914 21.8124 34.9893 20.9981C34.3072 19.62 33.6226 18.2432 32.9368 16.8613C32.667 16.9949 32.6365 17.2227 32.5461 17.4034C31.532 19.4482 30.5153 21.4918 29.519 23.5455C29.2059 24.1907 28.7351 24.5749 28.0251 24.6742C27.2489 24.7824 26.4752 24.8981 25.7003 25.0127C23.9774 25.2672 22.2545 25.5229 20.5316 25.7787C20.5023 25.8321 20.4731 25.8856 20.4438 25.939C20.585 26.0319 20.7454 26.1044 20.8637 26.2202C22.5039 27.8146 24.1225 29.4319 25.7843 31.0047C26.4078 31.5951 26.5987 32.2517 26.4498 33.0635C26.1762 34.5625 25.9115 36.064 25.6532 37.5655C25.4955 38.4816 25.3542 39.4004 25.1901 40.4158C27.5098 39.1993 29.72 38.0452 31.9239 36.8783C32.5563 36.5437 33.1684 36.5284 33.7995 36.8643C34.4905 37.2321 35.1865 37.5896 35.88 37.9523C37.4146 38.7565 38.9466 39.5607 40.5665 40.4107Z" fill="white"/>
<path d="M57.1809 31.3839C56.9163 29.843 56.7025 28.442 56.4289 27.0537C56.2521 26.1592 56.4684 25.4721 57.1351 24.8269C58.1518 23.8433 59.0896 22.7795 60.0732 21.7374C59.4955 21.6458 58.8275 21.5325 58.1556 21.4346C57.3807 21.3213 56.6045 21.2093 55.8258 21.1228C55.0394 21.035 54.4986 20.6494 54.1563 19.9318C53.6015 18.7662 53.02 17.6146 52.4423 16.4618C52.3494 16.2773 52.3062 16.0571 52.0797 15.9045C51.4778 17.1209 50.8797 18.3298 50.2791 19.5373C50.157 19.7842 50.045 20.0374 49.8974 20.269C49.4113 21.0325 48.499 21.2971 47.7342 20.9103C46.9262 20.5031 46.5254 19.5806 46.9224 18.7573C48.1529 16.2035 49.4215 13.6687 50.7016 11.1404C51.0044 10.541 51.5681 10.2993 52.2438 10.3387C52.9564 10.3807 53.403 10.7815 53.7046 11.3949C54.6373 13.2934 55.5955 15.1804 56.4964 17.0942C56.7585 17.6503 57.0791 17.9124 57.7065 17.99C59.8277 18.2509 61.9412 18.5792 64.056 18.8909C64.7584 18.994 65.2801 19.3579 65.5232 20.0438C65.77 20.7411 65.5652 21.3391 65.0536 21.8392C63.4796 23.3814 61.9069 24.9249 60.3137 26.4468C59.9753 26.77 59.8429 27.069 59.932 27.55C60.3239 29.6712 60.6611 31.8025 61.0416 33.9275C61.1752 34.6783 61.0619 35.3285 60.4333 35.8044C59.8035 36.2803 59.1418 36.2256 58.4661 35.868C56.6147 34.887 54.7518 33.9288 52.9093 32.9325C52.5441 32.7353 52.3291 32.7607 52.0466 33.0546C51.2971 33.8334 50.5247 34.5892 49.746 35.3374C48.952 36.1009 47.9569 36.1174 47.2609 35.4049C46.5801 34.7076 46.6412 33.6883 47.4148 32.9223C48.5448 31.8038 49.676 30.6879 50.8085 29.5745C51.5478 28.8479 52.1815 28.7588 53.1053 29.2436C54.4133 29.9308 55.7227 30.6179 57.1809 31.3839Z" fill="white"/>
<path d="M9.19225 31.062C10.0333 30.6294 10.891 30.1904 11.7461 29.7463C12.2156 29.502 12.6712 29.2309 13.1483 28.9993C13.8991 28.6354 14.548 28.7194 15.1334 29.2907C16.2404 30.3711 17.3347 31.4641 18.4125 32.5737C19.1123 33.2939 19.1098 34.3017 18.4545 34.9697C17.7966 35.6403 16.7965 35.6568 16.061 34.9646C15.3509 34.2966 14.6651 33.6031 13.9971 32.8943C13.7311 32.6106 13.5224 32.5864 13.1827 32.7684C11.3758 33.7405 9.55363 34.686 7.74038 35.6479C7.08888 35.994 6.44247 36.0449 5.82914 35.6009C5.21836 35.1593 5.03513 34.5422 5.17383 33.8054C5.30362 33.1196 5.39778 32.4273 5.51485 31.7389C5.76679 30.2591 6.00602 28.7754 6.28596 27.3006C6.35849 26.9189 6.20198 26.7127 5.96275 26.4811C4.47398 25.0382 2.9992 23.5761 1.49897 22.1395C0.908549 21.5745 0.50009 20.9676 0.781303 20.1214C1.0587 19.2841 1.73819 19.0067 2.54493 18.8948C4.59868 18.611 6.64861 18.2929 8.7049 18.0231C9.11845 17.9684 9.33858 17.7941 9.51164 17.4365C10.4456 15.5164 11.4012 13.6051 12.3403 11.6875C12.6737 11.0068 13.1585 10.5563 13.9576 10.5665C14.7491 10.5767 15.2237 11.0131 15.5609 11.7041C16.6718 13.9843 17.8106 16.2519 18.9342 18.5257C19.4394 19.5475 19.1772 20.5248 18.2827 20.9841C17.3983 21.4384 16.4414 21.063 15.9248 20.0361C15.2797 18.7548 14.6511 17.4658 13.9525 16.0508C13.5962 16.7583 13.2896 17.3627 12.9867 17.9684C12.6177 18.7064 12.2512 19.4445 11.8848 20.1838C11.5985 20.7614 11.1315 21.0745 10.4952 21.1635C9.05101 21.3671 7.60677 21.5822 6.17271 21.7921C6.10145 22.0428 6.30377 22.109 6.41066 22.2146C7.26957 23.0633 8.10939 23.935 9.01284 24.7341C9.75213 25.3881 9.93918 26.1389 9.75213 27.0716C9.51546 28.255 9.33222 29.4485 9.12736 30.6383C9.107 30.7604 9.0561 30.8864 9.19225 31.062Z" fill="white"/>
<path d="M23.5024 10.3629C22.7695 10.3782 22.2898 10.0715 21.9666 9.52307C21.3329 8.45039 20.7005 7.3777 20.0948 6.28975C19.6113 5.42066 19.8759 4.47014 20.6967 3.97897C21.4805 3.5107 22.4463 3.73084 22.9566 4.56048C23.6424 5.67516 24.3155 6.80001 24.9238 7.95795C25.5167 9.08534 24.6884 10.3667 23.5024 10.3629Z" fill="white"/>
<path d="M45.3518 5.23361C45.3594 5.50082 45.2487 5.81003 45.0731 6.11033C44.4878 7.11557 43.9228 8.13354 43.3324 9.13497C42.7763 10.0791 41.8067 10.3629 40.9529 9.85645C40.1258 9.36528 39.898 8.39694 40.4159 7.47441C41.0165 6.40554 41.6222 5.33795 42.2533 4.2869C42.6758 3.58323 43.4265 3.30965 44.1696 3.52597C44.8733 3.73083 45.353 4.39124 45.3518 5.23361Z" fill="white"/>
<path d="M34.2688 3.41782C34.2688 3.96753 34.284 4.5185 34.2649 5.0682C34.2331 6.01491 33.5155 6.70204 32.5917 6.69822C31.6666 6.6944 30.94 6.00346 30.9235 5.06439C30.9031 3.92299 30.9031 2.77905 30.9235 1.63766C30.94 0.706216 31.6831 -0.00127074 32.5955 1.71371e-06C33.5117 0.00127417 34.2319 0.696036 34.2649 1.64275C34.2853 2.23189 34.2688 2.82486 34.2688 3.41782Z" fill="white"/>
</svg>
