<svg width="77" height="58" viewBox="0 0 77 58" fill="none" xmlns="http://www.w3.org/2000/svg">
<path d="M68.49 27.8409C70.4616 27.8409 72.2703 27.8385 74.079 27.8434C74.4308 27.8458 74.7921 27.8384 75.1345 27.9149C75.7201 28.048 76.1687 28.3907 76.1144 29.0908C76.0624 29.7614 75.6374 30.1288 75.0093 30.1411C73.4769 30.1731 71.9303 30.3013 70.412 30.146C68.3908 29.9389 67.1795 30.5676 66.0249 32.5054C62.1643 38.9818 56.868 44.1393 51.2412 48.9295C47.6191 52.0137 43.8506 54.8833 39.8389 57.4054C39.0833 57.8812 38.4977 57.8171 37.7964 57.4202C34.8567 55.7487 32.1507 53.7148 29.5179 51.5724C22.9868 46.2571 16.8075 40.5547 12.059 33.3953C11.1027 31.9556 10.1275 31.4724 8.52664 31.5784C6.37084 31.7238 4.20087 31.64 2.03799 31.603C0.873902 31.5833 0.281234 30.649 0.79362 29.7738C1.08877 29.2684 1.54685 29.2486 2.02854 29.2486C4.19142 29.2511 6.35667 29.224 8.51955 29.261C9.30348 29.2758 9.4971 29.1204 9.12403 28.3118C7.90563 25.6763 7.15949 22.8979 6.86905 19.974C5.88442 10.0583 13.0082 1.62931 21.0766 0.416359C25.5629 -0.256682 29.6124 0.975993 33.6005 2.81761C35.107 3.51284 36.5874 4.27217 37.9381 5.26324C38.4693 5.65276 38.8401 5.62318 39.3949 5.25831C42.4645 3.25151 45.7348 1.69341 49.2554 0.754112C58.7948 -1.79506 68.3955 4.58527 70.2255 14.7253C71.0047 19.0445 70.3081 23.1987 68.7214 27.2246C68.6576 27.3676 68.608 27.513 68.49 27.8409ZM51.5128 26.2409C52.3439 24.9786 53.0239 23.9383 53.7111 22.9078C54.5233 21.6874 55.4277 21.6948 56.1597 22.9546C56.9719 24.3549 57.7653 25.7676 58.535 27.1925C58.7688 27.624 59.0097 27.8631 59.5315 27.8557C61.4582 27.8212 63.3874 27.8286 65.3141 27.8532C65.7675 27.8582 65.9989 27.7226 66.1972 27.2714C67.8666 23.4625 68.7308 19.4932 68.0437 15.3268C66.6152 6.63397 58.3461 1.03763 50.1031 3.10606C46.4054 4.03549 43.0218 5.72426 39.8766 7.92582C39.0785 8.48299 38.4363 8.58406 37.6429 7.97512C36.408 7.02843 35.0527 6.27403 33.6737 5.58127C29.7824 3.62871 25.8226 2.15443 21.3505 2.8965C16.1109 3.76677 11.1688 8.3326 9.79934 13.7071C8.46052 18.9706 9.5821 23.8249 11.856 28.5312C12.1299 29.1007 12.5147 29.1254 13.0059 29.1254C16.2313 29.118 19.4568 29.0982 22.6822 29.1402C23.3835 29.15 23.714 28.8838 24.0139 28.2576C25.6809 24.7839 27.3999 21.3373 29.0764 17.8686C29.3668 17.267 29.6903 16.8479 30.3987 16.8849C31.0882 16.9219 31.2983 17.4445 31.5014 17.9894C32.6938 21.1869 33.8815 24.387 35.0786 27.5796C36.1978 30.5627 37.3289 33.5433 38.5874 36.874C39.2934 34.347 39.9026 32.1676 40.5118 29.9907C42.0773 24.382 43.6499 18.7758 45.1988 13.1622C45.4137 12.3807 45.7939 11.9098 46.6109 12.038C47.2319 12.1366 47.4869 12.6075 47.6616 13.2091C48.9012 17.4618 50.1692 21.7071 51.5128 26.2409ZM13.556 31.6129C14.4132 32.8135 15.0578 33.7775 15.7638 34.6921C22.0447 42.8376 29.8202 49.181 38.1199 54.8957C38.6087 55.231 38.9298 55.1767 39.3713 54.8562C40.8495 53.7789 42.3795 52.7755 43.8435 51.6759C50.4384 46.728 56.6579 41.3436 61.6991 34.6231C62.7191 33.2622 63.7557 31.894 64.5302 30.1805C62.8089 30.1805 61.2292 30.0573 59.6732 30.215C58.0156 30.3827 57.0144 29.7516 56.3556 28.1959C55.9589 27.2591 55.3663 26.411 54.8043 25.4199C53.9259 26.7562 53.142 27.9321 52.3746 29.118C52.0157 29.6727 51.671 30.2274 50.913 30.1534C50.0488 30.0721 49.9142 29.3127 49.7135 28.6717C49.2271 27.1186 48.7926 25.5457 48.3322 23.9826C47.7348 21.9537 47.135 19.9247 46.5353 17.8957C45.8175 19.5869 45.3452 21.2584 44.8801 22.9299C43.2508 28.7753 41.6287 34.6231 39.9829 40.4635C39.8011 41.107 39.6641 41.8762 38.7834 41.923C37.9593 41.9674 37.65 41.4053 37.3879 40.6977C36.0821 37.1525 34.7481 33.6148 33.421 30.077C32.3113 27.1161 31.1968 24.1577 30.035 21.0661C28.5215 24.1651 27.0198 27.0841 25.6739 30.0795C25.1331 31.285 24.4224 31.6622 23.2111 31.6351C20.1084 31.5661 17.0034 31.6129 13.556 31.6129Z" fill="#8C9B47"/>
</svg>
