<svg width="66" height="59" viewBox="0 0 66 59" fill="none" xmlns="http://www.w3.org/2000/svg">
<path d="M55.5029 30.5494C55.5029 37.3761 55.5029 43.9504 55.5029 50.5246C55.5029 52.3219 55.5146 54.1193 55.4983 55.9143C55.4843 57.5487 55.007 58.0009 53.3281 58.0009C39.7926 58.0032 26.2547 58.0032 12.7192 58.0009C10.9402 58.0009 10.4931 57.551 10.4931 55.733C10.4885 47.8205 10.4908 39.9057 10.4908 31.9932C10.4908 31.587 10.4908 31.1829 10.4908 30.5333C9.85046 31.0659 9.39175 31.4469 8.93536 31.8303C8.22051 32.4294 7.45909 32.6016 6.7978 31.8326C6.14349 31.0728 6.3973 30.3313 7.10749 29.7299C9.25203 27.9119 11.4059 26.1054 13.5598 24.2988C19.4322 19.3705 25.307 14.4444 31.1795 9.51831C32.9026 8.07216 33.1121 8.07675 34.8003 9.49306C42.6776 16.1063 50.5572 22.7173 58.4345 29.3305C58.7279 29.5761 59.0329 29.8263 59.2634 30.127C59.7291 30.7284 59.6593 31.3574 59.1587 31.8991C58.6394 32.4592 57.9898 32.4891 57.3797 32.0644C56.7952 31.6512 56.2597 31.1646 55.5029 30.5494ZM52.6645 41.6411C52.6645 37.4358 52.6529 33.2328 52.6761 29.0275C52.6785 28.4054 52.5155 27.9693 52.0172 27.5538C45.8583 22.4303 39.7134 17.2908 33.5825 12.1351C33.1447 11.7679 32.9095 11.7288 32.4485 12.1168C26.2896 17.3 20.1121 22.4625 13.93 27.6158C13.5435 27.9372 13.3618 28.2631 13.3618 28.775C13.3758 37.2981 13.3805 45.8235 13.3572 54.3465C13.3548 55.0696 13.5947 55.2372 14.2862 55.228C17.3505 55.1936 20.4148 55.1821 23.4768 55.2349C24.3407 55.2487 24.5875 55.0375 24.5805 54.1629C24.5363 49.2322 24.5549 44.3016 24.5619 39.3709C24.5642 37.8008 25.0206 37.3669 26.6436 37.3647C30.7929 37.3624 34.9423 37.3624 39.0917 37.3647C41.1198 37.3647 41.4807 37.709 41.4831 39.6693C41.4877 44.4485 41.5063 49.2253 41.4644 54.0022C41.4574 54.9066 41.6228 55.2647 42.6473 55.2395C45.6324 55.1683 48.6199 55.1775 51.605 55.2372C52.5062 55.2555 52.6948 54.9732 52.6878 54.1376C52.6412 49.9737 52.6645 45.8074 52.6645 41.6411ZM38.6144 47.6874C38.6144 45.4332 38.6004 43.1768 38.626 40.9226C38.633 40.3671 38.5375 40.1146 37.8809 40.1215C34.6233 40.1559 31.3657 40.1491 28.1105 40.1261C27.5587 40.1215 27.3864 40.273 27.3887 40.8285C27.4096 45.3758 27.412 49.9255 27.3864 54.4728C27.384 55.0926 27.5936 55.2349 28.1874 55.2303C31.3657 55.205 34.5465 55.1959 37.7249 55.2349C38.449 55.2441 38.647 55.0398 38.633 54.3374C38.5864 52.1199 38.6144 49.9025 38.6144 47.6874Z" fill="#8C9B47"/>
<path d="M43.6647 8.62992C43.6647 7.07129 43.6554 5.48283 43.6671 3.89436C43.6787 2.39313 44.0862 1.97306 45.5695 1.96158C47.4695 1.94781 49.3719 1.94551 51.2719 1.96158C52.7948 1.97535 53.2465 2.44363 53.2488 3.98618C53.2558 7.92521 53.2791 11.8642 53.2279 15.801C53.2162 16.609 53.4468 17.1346 54.0638 17.6465C57.5379 20.5182 60.9841 23.4265 64.4372 26.3234C64.7027 26.5461 64.9728 26.7664 65.2266 27.0029C65.8763 27.6112 66.0788 28.3251 65.4595 29.0275C64.8494 29.7184 64.0996 29.6794 63.3987 29.1009C61.9434 27.8981 60.4951 26.6884 59.0468 25.4764C50.5967 18.4017 42.1419 11.334 33.7104 4.23639C33.1143 3.73368 32.7767 3.85305 32.2575 4.28689C22.8713 12.1604 13.4712 20.0223 4.07103 27.8843C3.62862 28.2562 3.19319 28.6372 2.74146 28.9953C1.84965 29.7 1.05097 29.7092 0.50145 28.9838C-0.115601 28.1713 0.187103 27.4803 0.892637 26.8904C3.07677 25.0586 5.26322 23.2268 7.44968 21.3973C15.4876 14.6716 23.5279 7.94816 31.5682 1.22244C32.8023 0.189475 33.1982 0.189476 34.4602 1.24539C37.2986 3.61661 40.1348 5.99013 42.9778 8.35676C43.1385 8.49219 43.2619 8.7401 43.6647 8.62992ZM50.4337 14.5844C50.4337 12.1282 50.4337 9.93145 50.4337 7.73239C50.4337 4.65416 50.4337 4.67023 47.2762 4.74139C46.7127 4.75517 46.4543 4.82862 46.4706 5.47594C46.5172 7.22968 46.4915 8.98342 46.4822 10.7372C46.4799 11.0975 46.5358 11.3891 46.8431 11.6347C47.9794 12.5483 49.0971 13.4825 50.4337 14.5844Z" fill="#8C9B47"/>
</svg>
