<svg width="44" height="54" viewBox="0 0 44 54" fill="none" xmlns="http://www.w3.org/2000/svg">
<path d="M0.75 27.2744C0.75 18.9397 0.75 10.605 0.75 2.27031C0.75 1.04574 1.18074 0.61881 2.41675 0.61881C11.0707 0.61881 19.7247 0.622621 28.3796 0.610233C29.0285 0.60928 29.5193 0.814169 29.9882 1.26493C34.1708 5.296 38.3696 9.31183 42.5693 13.3258C42.9505 13.6898 43.1345 14.1053 43.1335 14.6313C43.1287 25.7287 43.1411 36.8261 43.1221 47.9235C43.1163 51.3666 40.4337 53.9701 36.9277 53.9901C33.6571 54.0092 30.3856 53.9949 27.114 53.9949C18.8889 53.9949 10.6628 53.9949 2.43772 53.9939C1.15692 53.9939 0.75 53.5927 0.75 52.3262C0.75 43.9753 0.75 35.6244 0.75 27.2744ZM3.23535 27.3173C3.23535 35.1755 3.2344 43.0328 3.23631 50.891C3.23631 51.5924 3.14863 51.5124 3.88052 51.5124C11.248 51.5143 18.6154 51.5133 25.9828 51.5133C29.6032 51.5133 33.2235 51.5209 36.8429 51.5105C39.0786 51.5038 40.6415 49.9857 40.6434 47.8082C40.65 37.2359 40.6443 26.6636 40.6548 16.0903C40.6548 15.7273 40.5509 15.6396 40.1983 15.6415C37.9122 15.6567 35.626 15.6491 33.3388 15.6472C32.8299 15.6472 32.323 15.6215 31.8255 15.5033C29.2372 14.8915 27.581 12.7788 27.561 10.0342C27.5457 7.90715 27.5457 5.78011 27.5676 3.65308C27.5724 3.22138 27.4618 3.10226 27.0216 3.10321C19.2729 3.11751 11.5253 3.11655 3.77664 3.10416C3.34876 3.10321 3.22297 3.20137 3.22392 3.64736C3.23917 11.538 3.2344 19.4276 3.23535 27.3173ZM30.0701 4.80141C30.0701 6.66638 30.0635 8.39412 30.072 10.1228C30.0806 11.9154 31.3357 13.1561 33.1397 13.1618C34.8531 13.1666 36.5656 13.1647 38.279 13.159C38.4067 13.159 38.5573 13.2247 38.6945 13.0723C35.8461 10.3401 33.0034 7.61459 30.0701 4.80141Z" fill="white"/>
<path d="M9.18521 32.2451C9.18521 31.5152 9.17377 30.7842 9.18902 30.0543C9.20522 29.2118 9.68743 28.742 10.5308 28.721C10.8005 28.7144 11.075 28.6905 11.3399 28.7258C11.8192 28.7897 12.0803 28.6343 12.2385 28.1483C12.3529 27.7976 12.37 27.5765 12.0641 27.3354C11.7916 27.121 11.56 26.8532 11.3227 26.5969C10.8234 26.0584 10.7938 25.3637 11.3018 24.8424C12.3643 23.7503 13.4431 22.6725 14.5371 21.6119C15.0574 21.1068 15.7464 21.1325 16.2906 21.6319C16.5822 21.8997 16.8633 22.1827 17.1311 22.4753C17.3055 22.6658 17.458 22.704 17.7067 22.5906C18.4252 22.2646 18.4662 22.2761 18.4243 21.4794C18.3366 19.7945 18.9008 19.4057 20.4455 19.4667C21.6349 19.5134 22.827 19.4734 24.0182 19.4782C24.9674 19.482 25.4382 19.9642 25.442 20.921C25.4429 21.1115 25.4668 21.306 25.4372 21.4918C25.3457 22.0712 25.5201 22.4181 26.1377 22.581C26.4321 22.6592 26.5922 22.6535 26.7857 22.4381C27.0296 22.1665 27.2908 21.9101 27.5576 21.6605C28.1351 21.1192 28.8231 21.1011 29.3816 21.6481C30.4489 22.6916 31.5048 23.7456 32.5474 24.8138C33.0734 25.3523 33.0572 26.0575 32.5464 26.6054C32.2758 26.8951 32.0004 27.1839 31.7049 27.4469C31.5019 27.627 31.4495 27.8024 31.6106 28.0177C31.7955 28.2636 31.6611 28.7658 32.2081 28.7268C32.6036 28.6991 33.0019 28.7096 33.3984 28.7249C34.1874 28.7534 34.6782 29.2318 34.6849 30.0142C34.6982 31.5066 34.6982 32.9989 34.6849 34.4913C34.6773 35.2756 34.1817 35.7425 33.3869 35.7597C33.1649 35.7645 32.9419 35.7607 32.7198 35.7607C31.8746 35.7607 31.8831 35.7635 31.5763 36.524C31.4915 36.7346 31.5143 36.8699 31.6792 37.0233C31.9813 37.3035 32.2748 37.5961 32.5521 37.901C33.0477 38.4461 33.0763 39.1304 32.5674 39.6555C31.4962 40.7609 30.4041 41.8473 29.2968 42.9175C28.8384 43.3606 28.1294 43.3349 27.6481 42.9146C27.4213 42.7164 27.1926 42.5115 27.0087 42.2761C26.677 41.8492 26.3416 41.7692 25.8403 42.0341C25.5401 42.1923 25.4067 42.3257 25.4334 42.6621C25.462 43.0252 25.4477 43.3921 25.4382 43.7571C25.4201 44.4623 24.9588 44.9893 24.2603 45.0016C22.7203 45.0283 21.1793 45.0283 19.6393 45.0026C18.9055 44.9902 18.4567 44.4813 18.4329 43.7361C18.4243 43.4664 18.3976 43.1919 18.4357 42.927C18.5139 42.3876 18.3261 42.0922 17.7848 41.9331C17.4894 41.8463 17.3026 41.8054 17.0844 42.0598C16.8271 42.36 16.5374 42.6354 16.242 42.9003C15.7083 43.3787 15.0431 43.3854 14.5295 42.8841C13.4507 41.8311 12.3824 40.7657 11.3304 39.685C10.7824 39.1218 10.8091 38.4423 11.3551 37.862C11.6267 37.5732 11.9069 37.2911 12.1985 37.0214C12.3653 36.8671 12.3786 36.7327 12.2929 36.5221C11.9831 35.7645 11.9908 35.7244 11.1474 35.7692C9.54257 35.854 9.08991 35.3413 9.17854 33.8194C9.21094 33.2944 9.18521 32.7693 9.18521 32.2451ZM21.9503 21.9826C20.9287 21.9797 20.9287 21.9797 20.9211 22.9765C20.9211 23.0242 20.923 23.0718 20.9201 23.1195C20.8896 23.8332 20.5942 24.223 19.9033 24.4336C19.2658 24.628 18.6416 24.8539 18.0564 25.1788C17.1635 25.6744 16.7671 25.6163 16.0352 24.892C15.3862 24.2497 15.3843 24.2487 14.7382 24.9091C14.4837 25.1693 14.0463 25.4371 14.0444 25.7039C14.0425 25.9698 14.4809 26.2395 14.7306 26.5044C15.2566 27.061 15.33 27.5184 14.9602 28.1845C14.6276 28.7839 14.3675 29.4091 14.1769 30.0657C13.9186 30.95 13.5613 31.214 12.6273 31.2159C11.641 31.2169 11.641 31.2169 11.6448 32.2213C11.6486 33.2705 11.6486 33.2705 12.675 33.2753C13.5432 33.2801 13.931 33.5631 14.1645 34.3817C14.3522 35.0393 14.6057 35.6673 14.9393 36.2657C15.3357 36.9776 15.268 37.4503 14.7086 38.0278C13.9615 38.8006 13.9615 38.8006 14.7077 39.5525C15.39 40.2406 15.39 40.2406 16.0933 39.544C16.7385 38.9045 17.1635 38.8426 17.9611 39.2657C18.5224 39.563 19.0999 39.8184 19.7118 39.9985C20.6676 40.2797 20.9154 40.6199 20.9201 41.6005C20.9239 42.5258 20.9239 42.5258 21.8645 42.5258C22.9395 42.5258 22.9395 42.5258 22.9566 41.4594C22.97 40.6437 23.2702 40.252 24.0707 40.0271C24.6844 39.8546 25.2666 39.6116 25.827 39.3067C26.7247 38.8178 27.1221 38.8816 27.8482 39.6088C28.4848 40.2463 28.4905 40.2511 29.129 39.5887C29.3797 39.3286 29.8219 39.1142 29.8285 38.793C29.8352 38.4671 29.3844 38.2584 29.1367 37.9954C28.6268 37.455 28.5496 36.9719 28.9137 36.3096C29.2434 35.7101 29.5036 35.084 29.7008 34.4294C29.9743 33.5221 30.3098 33.2772 31.2446 33.2734C32.2176 33.2696 32.2176 33.2696 32.2186 32.3052C32.2186 31.2283 32.2186 31.2283 31.1322 31.214C30.3479 31.2035 29.9667 30.9272 29.737 30.1791C29.5464 29.5578 29.3311 28.9478 29.0195 28.3742C28.5144 27.4431 28.5639 27.0991 29.2958 26.3539C29.9219 25.7154 29.9219 25.7154 29.2863 25.0597C28.5067 24.2554 28.5067 24.2554 27.7253 25.013C27.1507 25.5696 26.6627 25.6496 25.9661 25.2589C25.3543 24.9158 24.7139 24.6528 24.0421 24.4546C23.2492 24.2211 22.9681 23.8304 22.9595 23.0003C22.9461 21.9864 22.9461 21.9864 21.9503 21.9826Z" fill="white"/>
<path d="M22.278 36.2533C23.6874 36.1904 24.9549 35.389 25.6353 33.7908C26.3129 32.2013 25.9679 30.7518 24.8396 29.4729C24.6299 29.2356 24.3793 29.0326 24.2869 28.7115C24.1277 28.1587 24.3317 27.6098 24.812 27.302C25.2818 26.9999 25.8669 27.038 26.3081 27.4345C27.4469 28.458 28.1588 29.735 28.3646 31.2464C28.8859 35.0869 26.3072 38.3413 22.4676 38.7406C19.1265 39.0874 15.8578 36.4487 15.4928 33.1104C15.0964 29.4796 17.3778 26.4348 20.9762 25.802C21.2555 25.7534 21.5452 25.7468 21.8301 25.7449C22.6058 25.7391 23.1366 26.2147 23.1614 26.9246C23.1881 27.6689 22.6954 28.1749 21.893 28.2293C20.0414 28.3541 18.6577 29.3652 18.1126 30.9929C17.2473 33.5802 19.2066 36.2647 22.278 36.2533Z" fill="white"/>
</svg>
