<svg width="89" height="72" viewBox="0 0 89 72" fill="none" xmlns="http://www.w3.org/2000/svg">
<path d="M52.9359 21.8005C52.9611 21.5119 52.7387 21.4654 52.5859 21.3821C49.2965 19.5595 45.9974 17.7504 42.7157 15.9123C42.1433 15.5927 42.1317 16.0827 41.9925 16.3365C40.0587 19.8268 38.1229 23.3152 36.2258 26.8249C35.901 27.4272 35.665 27.5493 35.0307 27.1851C32.2402 25.5891 29.4246 24.0338 26.5916 22.5191C25.9341 22.1666 25.9283 21.8974 26.2686 21.293C28.1986 17.8744 30.0705 14.4228 31.9908 10.9983C32.3099 10.427 32.3524 10.1422 31.6775 9.78196C28.4461 8.05618 25.2398 6.27809 22.0471 4.48063C21.4902 4.16685 21.2485 4.13393 20.9004 4.77117C15.5186 14.5933 10.1194 24.4018 4.6776 34.189C4.26957 34.9231 4.6486 35.0335 5.10304 35.2834C14.0817 40.2418 23.0527 45.2139 32.0449 50.1492C32.8397 50.585 33.1221 50.8813 32.5593 51.7684C31.6234 53.2443 31.6891 53.2889 30.1614 52.4444C20.5097 47.1121 10.8619 41.7739 1.20061 36.4571C0.574053 36.1124 0.438686 35.878 0.821581 35.1846C7.12195 23.813 13.3933 12.4258 19.6415 1.02518C20.0456 0.289156 20.3144 0.194247 21.0725 0.614557C32.7643 7.1129 44.4736 13.5783 56.1905 20.0302C56.8229 20.3788 56.9331 20.6403 56.5638 21.3027C51.2496 30.8653 45.9568 40.4394 40.6871 50.0291C40.3178 50.7012 40.0277 50.7322 39.4147 50.3719C37.7071 49.3725 37.6955 49.3976 38.6682 47.6389C43.3075 39.2463 47.9448 30.8536 52.584 22.4591C52.7077 22.2344 52.8276 22.0058 52.9359 21.8005ZM39.6874 14.4867C39.7744 14.2117 39.5307 14.1575 39.3838 14.0761C38.0398 13.3265 36.6784 12.6079 35.344 11.8409C34.8876 11.5794 34.8006 11.8738 34.644 12.1586C33.1259 14.9128 31.6195 17.6729 30.0724 20.4098C29.794 20.9037 29.97 21.0548 30.3722 21.2698C31.5615 21.9012 32.7508 22.5385 33.9014 23.2358C34.4622 23.5747 34.7349 23.536 35.0597 22.9297C36.483 20.2703 37.9547 17.6361 39.4089 14.9923C39.4998 14.8218 39.5945 14.6533 39.6874 14.4867Z" fill="#8C9B47"/>
<path d="M80.0693 21.5505C78.7485 21.5505 77.4277 21.5544 76.1088 21.5505C73.5427 21.5408 72.0846 20.3593 71.6069 17.8568C71.518 17.39 71.3091 17.299 70.8953 17.3087C69.9941 17.33 69.0891 17.3648 68.1918 17.3009C67.4898 17.2506 67.1263 17.4888 66.7801 18.1202C60.5184 29.5015 54.2161 40.8615 47.9622 52.2486C47.5174 53.0602 47.2119 53.0699 46.4886 52.6283C44.9358 51.6811 44.9087 51.7237 45.7963 50.118C52.2204 38.4927 58.6504 26.8712 65.0571 15.2381C65.3897 14.6357 65.7223 14.351 66.4514 14.3859C67.9288 14.4556 69.414 14.3956 70.8953 14.413C71.342 14.4188 71.545 14.3336 71.6437 13.8125C72.0343 11.7827 73.5755 10.5198 75.6679 10.4985C78.5667 10.4694 81.4655 10.4714 84.3624 10.4985C86.7293 10.5217 88.3247 11.9337 88.5645 14.2832C88.6786 15.3989 88.6786 16.5455 88.5703 17.6612C88.3383 20.0397 86.7061 21.4963 84.3198 21.5447C82.9043 21.5738 81.4868 21.5505 80.0693 21.5505ZM80.0964 13.3942C78.6827 13.3942 77.2691 13.3826 75.8555 13.398C74.848 13.4097 74.4574 13.7874 74.4245 14.7946C74.3974 15.5984 74.3974 16.4041 74.4245 17.208C74.4593 18.1958 74.8809 18.6316 75.8497 18.6374C78.6769 18.6529 81.5061 18.6548 84.3333 18.6374C85.2326 18.6316 85.6851 18.1667 85.716 17.2622C85.745 16.4274 85.745 15.5887 85.718 14.7519C85.6889 13.8261 85.2712 13.4135 84.3391 13.4019C82.9255 13.3825 81.51 13.3961 80.0964 13.3942Z" fill="#8C9B47"/>
<path d="M48.053 62.9637C48.0453 67.6549 44.197 71.5094 39.5075 71.521C34.7948 71.5346 30.8749 67.6259 30.8846 62.9211C30.8943 58.1893 34.7812 54.3019 39.4978 54.3077C44.2163 54.3154 48.0588 58.2028 48.053 62.9637ZM45.1465 62.8785C45.1387 59.7737 42.5842 57.2189 39.4862 57.215C36.365 57.2111 33.7447 59.8473 33.7795 62.9579C33.8143 66.0647 36.3747 68.6079 39.4688 68.6118C42.6209 68.6157 45.1561 66.057 45.1465 62.8785Z" fill="#8C9B47"/>
<path d="M2.11534 44.6328C2.07666 43.432 3.2911 42.8121 4.48039 43.4591C7.49521 45.1016 10.5062 46.7499 13.5074 48.4195C18.2975 51.0866 23.0721 53.7828 27.8699 56.4345C28.4945 56.7792 28.5815 57.033 28.2102 57.6644C27.1911 59.4018 27.2259 59.4212 25.5145 58.4701C18.1118 54.3561 10.7092 50.2441 3.30657 46.1339C2.69742 45.7969 2.12114 45.4483 2.11534 44.6328Z" fill="#8C9B47"/>
</svg>
