<svg width="57" height="57" viewBox="0 0 57 57" fill="none" xmlns="http://www.w3.org/2000/svg">
<path d="M51.508 24.1539C51.4869 24.2609 51.4658 24.3664 51.4447 24.4734C51.3603 24.5518 51.3272 24.6392 51.3875 24.7477C51.3543 24.903 51.3212 25.0582 51.2895 25.2149C51.1163 25.4937 51.0907 25.8117 51.047 26.1267C51.0259 26.2216 51.0048 26.3166 50.9837 26.4115C50.9039 26.4372 50.8707 26.4869 50.9024 26.5698C50.8768 26.713 50.8512 26.8576 50.8271 27.0008C50.8015 27.0581 50.7743 27.1153 50.7487 27.1726C50.7231 27.3098 50.6975 27.4484 50.6719 27.5856C50.6433 27.6473 50.6131 27.7106 50.5845 27.7724C50.5664 27.8674 50.5469 27.9623 50.5288 28.0588C50.4263 28.1417 50.3842 28.2487 50.4068 28.3783C50.2953 28.7204 50.1838 29.0625 50.0723 29.4046C50.0497 29.4619 50.0256 29.5176 50.003 29.5749C49.9699 29.6759 49.9367 29.7784 49.9036 29.8793C49.6144 30.4641 49.3567 31.0624 49.191 31.6954C49.0057 31.9124 48.9154 32.1701 48.8687 32.4459C48.6532 32.7141 48.5402 33.0291 48.4438 33.3531C48.1395 33.8339 47.8653 34.3297 47.6755 34.8678C46.2474 37.4072 44.6294 39.817 42.775 42.0656C41.0004 44.0127 39.1504 45.8785 37.067 47.5046C31.4719 51.8706 25.1643 54.5773 18.1487 55.6172C15.3859 56.0271 12.5989 56.0121 9.81342 55.997C7.4799 55.9834 5.14487 55.9985 2.81135 55.9925C1.81105 55.9895 1.26119 55.5419 1.2627 54.7582C1.2642 53.9956 1.85775 53.548 2.82491 53.5043C3.54048 53.4711 4.49257 53.8509 4.90233 53.346C5.25032 52.918 5.00778 52.0032 5.00778 51.3024C5.01381 46.3065 5.00929 41.312 5.01983 36.3161C5.02435 33.9243 6.50371 32.4052 8.88393 32.3464C9.83602 32.3223 10.7926 32.2605 11.7402 32.4082C13.67 32.7096 14.964 34.1986 14.9686 36.1593C14.9806 41.6315 14.9912 47.1052 14.9565 52.5774C14.952 53.3159 15.1704 53.4651 15.8318 53.349C16.5473 53.224 17.275 53.1622 17.9996 53.0928C18.4907 53.0461 18.7121 52.8954 18.7091 52.3092C18.682 45.0044 18.691 37.6996 18.6926 30.3947C18.6926 29.7678 18.688 29.1394 18.7136 28.5124C18.789 26.6361 19.9836 25.2285 21.8576 24.9557C23.0478 24.7824 24.271 24.7779 25.4611 24.9512C27.4482 25.2405 28.6594 26.7657 28.6624 28.8741C28.6714 34.4473 28.6669 40.0205 28.6684 45.5936C28.6684 46.9485 28.6684 48.3018 28.6684 49.7652C29.9474 49.2227 31.0742 48.5626 32.1724 47.8482C32.4617 47.6598 32.3412 47.3418 32.3427 47.0826C32.3502 41.9616 32.3472 36.8405 32.3472 31.7195C32.3472 28.2547 32.3397 24.7914 32.3517 21.3267C32.3592 19.0314 33.9983 17.4128 36.3092 17.3992C36.9871 17.3947 37.665 17.4022 38.3429 17.4037C40.7669 17.4098 42.3351 18.9771 42.3396 21.4216C42.3486 26.7928 42.3486 32.1641 42.3577 37.5368C42.3577 37.7749 42.2854 38.0266 42.4285 38.2587C45.5876 35.3154 49.9744 23.738 49.4517 19.369C48.9997 19.8904 48.6849 20.3034 48.3173 20.6651C47.6635 21.3071 46.9283 21.3312 46.3935 20.7736C45.8798 20.237 45.9265 19.5302 46.5457 18.9063C47.677 17.7654 48.8099 16.6291 49.9578 15.5048C50.7653 14.7151 51.3423 14.7181 52.1558 15.5184C53.2841 16.6261 54.4004 17.7458 55.5077 18.8731C56.1253 19.5031 56.1615 20.2928 55.6327 20.8067C55.0828 21.3387 54.3823 21.2754 53.7074 20.6304C53.4001 20.335 53.1109 20.017 52.79 19.7397C52.6514 19.6191 52.4766 19.4172 52.2823 19.5001C52.0624 19.595 52.0443 19.8542 52.0398 20.0803C52.0337 20.3802 52.0368 20.6816 52.0368 20.983C51.8921 21.3764 51.8545 21.7833 51.8861 22.1993V22.1962C51.8198 22.2867 51.7807 22.3801 51.8349 22.4916C51.7355 22.9332 51.5291 23.3537 51.5743 23.8224C51.5502 23.9309 51.5291 24.0424 51.508 24.1539ZM21.1918 40.2978C21.1903 40.2978 21.1888 40.2978 21.1873 40.2978C21.1873 44.1107 21.2023 47.9251 21.1722 51.738C21.1677 52.3619 21.353 52.4599 21.8953 52.3062C23.1713 51.9445 24.4367 51.5511 25.6811 51.0854C26.0547 50.9453 26.1526 50.7388 26.1526 50.362C26.142 43.1868 26.1481 36.0131 26.142 28.8379C26.1405 27.8824 25.6735 27.4168 24.7094 27.3821C24.1083 27.3595 23.5057 27.3731 22.9031 27.3821C21.5609 27.4017 21.1948 27.7649 21.1933 29.0851C21.1903 32.8226 21.1918 36.5602 21.1918 40.2978ZM39.8238 31.2372C39.8268 31.2372 39.8298 31.2372 39.8328 31.2372C39.8328 27.9985 39.8389 24.7613 39.8298 21.5226C39.8268 20.3576 39.3899 19.9371 38.2345 19.9296C37.5822 19.9251 36.9299 19.9236 36.2776 19.9386C35.3496 19.9597 34.8796 20.4149 34.8796 21.3297C34.872 29.3127 34.8705 37.2957 34.8751 45.2786C34.8751 45.4595 34.7575 45.7232 34.991 45.8137C35.2004 45.8935 35.339 45.6554 35.4867 45.5379C36.8832 44.4287 38.2089 43.2411 39.4442 41.9525C39.7304 41.6541 39.8343 41.3557 39.8313 40.9518C39.8178 37.7146 39.8238 34.4759 39.8238 31.2372ZM12.4482 44.5748C12.4482 41.8139 12.4528 39.0544 12.4452 36.2935C12.4422 35.3455 12.0219 34.9009 11.0849 34.8678C10.3332 34.8406 9.57841 34.8361 8.82668 34.8678C7.94239 34.9054 7.49647 35.3696 7.49496 36.2573C7.48743 41.8274 7.49496 47.3991 7.48291 52.9693C7.48141 53.3958 7.61096 53.5329 8.04031 53.5254C9.29369 53.5013 10.5501 53.4892 11.8035 53.5299C12.3443 53.548 12.4648 53.3702 12.4603 52.8562C12.4347 50.0968 12.4482 47.3358 12.4482 44.5748Z" fill="white"/>
<path d="M14.2327 0.0738468C14.8353 0.209484 15.4378 0.345121 16.0404 0.480758C16.1338 0.504871 16.2287 0.527477 16.3221 0.551591C19.091 1.60805 21.3884 3.26584 22.9868 5.80526C26.7665 11.8095 24.8111 19.7141 18.6707 23.2557C12.6042 26.7552 4.85339 24.5292 1.49698 18.3231C-2.56145 10.8133 2.02274 1.56585 10.4816 0.162764C11.2815 0.0301416 12.0799 0.0738468 12.8769 0C13.3288 0.0241132 13.7807 0.0497336 14.2327 0.0738468ZM11.7575 16.18C11.7575 16.1785 11.7575 16.177 11.7575 16.1755C12.3601 16.1755 12.9627 16.1875 13.5653 16.1725C14.3713 16.1514 14.9332 15.6616 14.9603 14.9864C14.9874 14.2856 14.4119 13.737 13.5804 13.7144C12.8527 13.6948 12.1236 13.7325 11.396 13.7159C9.71477 13.6767 8.44482 12.9548 7.77143 11.3769C6.84344 9.20372 8.14654 6.8135 10.5328 6.31918C11.042 6.21368 11.2604 6.05845 11.2243 5.50536C11.1715 4.7051 11.1956 3.89881 11.2122 3.09554C11.2197 2.71726 11.0721 2.59519 10.7151 2.67958C10.471 2.73836 10.2225 2.77604 9.97991 2.84084C4.09715 4.41423 0.969714 10.6385 3.30324 16.2629C4.62441 19.4458 7.08146 21.3658 10.4168 22.1797C11.0013 22.3228 11.3071 22.2143 11.2243 21.5181C11.1685 21.0479 11.2062 20.5656 11.2062 20.0878C11.2062 18.8309 11.2077 18.8309 10.007 18.6968C9.21613 18.6079 8.71448 18.0925 8.73255 17.3841C8.75063 16.706 9.24174 16.2267 10.0251 16.1845C10.6021 16.1544 11.1806 16.18 11.7575 16.18ZM13.1254 8.70036C13.1254 8.7079 13.1254 8.71543 13.1254 8.72297C12.8241 8.72297 12.5243 8.72297 12.223 8.72297C11.9217 8.72297 11.6205 8.7094 11.3207 8.72749C10.4921 8.77421 10.001 9.23989 9.99949 9.96179C9.99799 10.6731 10.5147 11.169 11.3267 11.1901C12.0784 11.2096 12.8317 11.178 13.5834 11.1901C15.6292 11.2217 17.2486 12.6278 17.4174 14.5056C17.6026 16.5733 16.3899 18.1829 14.2959 18.6064C13.8862 18.6893 13.6888 18.8174 13.7175 19.28C13.7596 19.9537 13.7175 20.6334 13.728 21.3101C13.7431 22.3665 13.7491 22.3665 14.7614 22.1134C19.6484 20.8956 22.7744 16.5146 22.3631 11.4628C22.0151 7.19479 18.5367 3.42257 14.305 2.68712C13.7958 2.5982 13.6888 2.75494 13.7129 3.20857C13.7416 3.75865 13.731 4.31175 13.731 4.86334C13.731 6.10668 13.7295 6.10668 14.9678 6.21971C15.6939 6.28602 16.2061 6.8135 16.2016 7.48867C16.1986 8.1337 15.7286 8.64008 15.0055 8.69132C14.3818 8.73502 13.7521 8.70036 13.1254 8.70036Z" fill="white"/>
</svg>
