<svg width="73" height="65" viewBox="0 0 73 65" fill="none" xmlns="http://www.w3.org/2000/svg">
<path d="M14.1426 41.0857C20.0828 38.3391 25.7644 38.5981 31.3564 41.6987C32.8184 42.5091 34.4494 42.8117 36.1392 42.8425C39.3782 42.9014 42.6223 42.9553 45.8561 43.1322C48.5189 43.2784 50.6364 44.5658 52.1419 46.7559C52.5977 47.4201 52.8998 47.5202 53.6449 47.1534C56.8352 45.5762 60.0588 44.0632 63.2926 42.5757C66.4496 41.1216 69.896 42.0321 71.783 44.7556C72.5972 45.9327 72.5025 46.6764 71.3477 47.4253C63.5743 52.4646 55.8392 57.568 47.9889 62.4842C45.0265 64.3384 41.5776 64.7564 38.1364 64.2666C33.8477 63.6536 29.7971 62.0431 25.6082 60.9968C23.7621 60.5352 21.9084 60.0761 20.1109 59.4606C17.6094 58.6066 15.7915 60.0992 13.82 61.1071C13.441 61.2994 13.6074 61.7149 13.5742 62.0354C13.4589 63.1382 12.9494 63.7101 11.7511 63.6639C8.38417 63.5357 5.0172 63.4664 1.65024 63.3767C0.477558 63.3459 0.111417 62.6253 0.142142 61.5943C0.334174 55.1061 0.536448 48.6178 0.731041 42.1321C0.764327 41.0216 0.779689 39.9112 0.805293 38.8007C0.830898 37.7672 1.34042 37.2056 2.39276 37.2312C5.75973 37.3133 9.12926 37.4005 12.4962 37.5057C13.6023 37.5416 14.2476 38.0545 14.1554 39.2701C14.1093 39.8214 14.1426 40.3779 14.1426 41.0857ZM69.0177 45.6711C67.4508 44.4684 65.9401 44.3196 64.3424 45.0685C61.0036 46.6354 57.6776 48.228 54.3362 49.7898C53.7729 50.0539 53.5323 50.2847 53.6859 51.0105C53.9906 52.4441 53.4145 53.1698 52.124 53.1467C47.0492 53.0519 41.9745 52.9365 36.8997 52.8134C35.9549 52.7903 35.0255 52.6133 35.0895 51.3618C35.1509 50.1437 36.0394 50.018 37.0124 50.0514C41.191 50.1975 45.367 50.3309 49.5457 50.4771C50.9565 50.5258 51.0614 50.4027 50.4188 49.1179C49.3255 46.9303 47.4845 45.866 45.0905 45.7711C43.0447 45.6891 40.9964 45.6763 38.948 45.6557C35.174 45.6173 31.6124 45.0069 28.1405 43.2374C23.8236 41.037 19.3249 41.4832 15.0464 43.7426C14.5983 43.9785 14.0478 44.1504 14.0274 44.8889C13.9173 49.2256 13.7636 53.5622 13.6254 57.845C13.9864 58.0168 14.1579 57.8399 14.3244 57.7373C16.5673 56.3601 18.9075 56.1934 21.4193 56.9448C26.1228 58.3502 30.8468 59.6863 35.5811 60.9865C39.9978 62.1996 44.2251 61.9405 48.1272 59.2324C49.9425 57.9732 51.8372 56.8294 53.691 55.6267C58.7453 52.3389 63.8047 49.0538 69.0177 45.6711ZM11.3543 50.4053C11.3543 47.333 11.3261 44.2606 11.3748 41.1909C11.3876 40.4831 11.2595 40.2292 10.5119 40.2241C8.55316 40.2061 6.58931 40.1574 4.6357 40.0163C3.66786 39.9471 3.42461 40.2446 3.40413 41.1935C3.27355 47.3791 3.09944 53.5648 2.8818 59.7479C2.84852 60.666 3.18905 60.7916 3.96487 60.7814C5.9236 60.7583 7.88745 60.7532 9.84618 60.8557C10.686 60.8993 10.7859 60.6095 10.8371 59.8761C11.0598 56.7217 11.0163 53.5622 11.3543 50.4053Z" fill="#8C9B47"/>
<path d="M17.6068 19.8181C17.5915 9.05728 26.2764 0.307087 37.0021 0.278877C47.8327 0.250667 56.5894 8.94957 56.6048 19.7514C56.6201 30.5558 47.8762 39.3008 37.0635 39.2983C26.3225 39.2957 17.6248 30.5865 17.6068 19.8181ZM37.1352 2.99215C27.9612 2.9819 20.3337 10.2472 20.3055 19.7411C20.2748 29.0401 27.5823 36.544 37.0405 36.5824C46.9724 36.6209 53.7115 28.4349 53.8702 20.095C54.0366 11.291 46.9417 3.00498 37.1352 2.99215Z" fill="#8C9B47"/>
<path d="M42.804 15.0068C42.9551 15.907 42.4584 16.5763 41.5494 16.6353C40.7122 16.6892 40.2564 16.1045 40.1514 15.1633C39.9773 13.5912 39.0761 12.6218 37.7805 12.35C36.4209 12.0653 35.1484 12.5731 34.4903 13.7323C33.8425 14.8735 33.9091 16.0224 34.6695 17.0969C35.2533 17.9176 36.0932 18.2587 37.0866 18.31C39.4345 18.4331 41.2447 19.4666 42.2766 21.6208C43.7437 24.6854 42.3022 28.2475 39.0658 29.4734C38.4129 29.7196 38.1799 29.9709 38.2311 30.6249C38.3028 31.5507 37.9597 32.3072 36.9432 32.3021C35.8883 32.2995 35.4735 31.5532 35.5836 30.5582C35.6553 29.9017 35.4044 29.5862 34.8104 29.3323C32.7467 28.4578 31.6892 26.796 31.3359 24.6392C31.1874 23.7263 31.4767 22.9697 32.442 22.7902C33.5097 22.5902 33.9552 23.2621 34.0883 24.2469C34.3444 26.1267 35.6067 27.2038 37.3529 27.073C38.9199 26.9576 40.2359 25.5163 40.1694 23.9904C40.0977 22.3465 38.7637 21.1361 36.933 21.0566C34.3188 20.9412 32.0656 19.1024 31.5177 16.6353C30.9108 13.9118 32.0605 11.3575 34.5415 10.1445C35.2559 9.7957 35.7219 9.50591 35.5939 8.5955C35.4633 7.66714 36.0547 7.09268 36.9227 7.09012C37.8214 7.08499 38.3156 7.7133 38.2234 8.62371C38.1441 9.41872 38.4923 9.69056 39.2015 9.94957C41.3113 10.7292 42.7836 12.8424 42.804 15.0068Z" fill="#8C9B47"/>
<line x1="22.3914" y1="11.822" x2="51.8124" y2="27.9871" stroke="#8C9B47" stroke-width="2.5" stroke-linecap="round"/>
</svg>
