<svg width="40" height="61" viewBox="0 0 40 61" fill="none" xmlns="http://www.w3.org/2000/svg">
<path d="M20.3166 52.2686L20.3168 52.2687C21.2023 52.889 22.1019 53.4835 23.007 54.0817C23.3564 54.3126 23.7066 54.5441 24.0571 54.7778C26.7693 56.5848 29.4804 58.3917 32.2724 60.2527V60.2522V60.2509V60.2496V60.2482V60.2469V60.2456V60.2442V60.2429V60.2416V60.2403V60.2389V60.2376V60.2363V60.2349V60.2336V60.2323V60.231V60.2296V60.2283V60.227V60.2256V60.2243V60.223V60.2217V60.2203V60.219V60.2177V60.2163V60.215V60.2137V60.2124V60.211C32.2724 59.003 32.2725 57.7951 32.2725 56.5871C32.2728 49.3356 32.2731 42.0845 32.2625 34.8333V34.8327C32.2625 34.5666 32.3024 34.3237 32.4016 34.0925C32.5002 33.8624 32.6477 33.667 32.8312 33.4828L32.8316 33.4824C37.7201 28.5878 39.6824 22.731 38.3967 15.9422C36.3461 5.11765 25.5784 -1.75786 14.973 1.01656C7.65307 2.93223 2.89215 7.66592 1.04575 14.9956L20.3166 52.2686ZM20.3166 52.2686C20.0871 52.108 19.8432 52.0047 19.5686 52.0191C19.3054 52.0329 19.0805 52.1526 18.8847 52.284M20.3166 52.2686L18.8847 52.284M18.8847 52.284C15.6455 54.4575 12.3999 56.6204 9.15372 58.7837C8.41411 59.2765 7.67447 59.7694 6.93487 60.2625C6.93487 60.2623 6.93487 60.262 6.93487 60.2618V60.2616V60.2613C6.93115 51.7809 6.92744 43.3009 6.9423 34.8223M18.8847 52.284L1.04574 14.9956C-0.738991 22.0849 1.22116 28.2694 6.36846 33.4752L6.36853 33.4752C6.54708 33.6559 6.69596 33.848 6.7972 34.0761C6.89947 34.3064 6.943 34.5505 6.9423 34.8223M6.9423 34.8223C6.9423 34.8224 6.9423 34.8225 6.9423 34.8227L6.5423 34.8216L6.9423 34.8223ZM19.6785 3.95026C11.022 3.92612 3.95281 10.9289 3.94136 19.5494C3.92865 28.1789 10.9566 35.2321 19.5871 35.255C28.1666 35.2766 35.2329 28.2395 35.2659 19.642C35.299 11.0507 28.2699 3.97318 19.6785 3.95026ZM19.6785 3.95026L19.6773 4.35026L19.6784 3.95026C19.6784 3.95026 19.6784 3.95026 19.6785 3.95026ZM7.07365 60.6507C7.03103 60.6793 6.988 60.7072 6.94443 60.7349L19.1076 52.6161C15.8686 54.7894 12.6232 56.9522 9.37783 59.115C8.60974 59.6269 7.84165 60.1387 7.07365 60.6507ZM28.0791 53.1674L28.7003 53.5796V52.8341V52.8033V52.7724V52.7416V52.7108V52.6799V52.6491V52.6183V52.5874V52.5566V52.5258V52.495V52.4642V52.4334V52.4026V52.3717V52.3409V52.3101V52.2793V52.2485V52.2178V52.187V52.1562V52.1254V52.0946V52.0638V52.033V52.0023V51.9715V51.9407V51.91V51.8792V51.8484V51.8177V51.7869V51.7561V51.7254V51.6946V51.6639V51.6331V51.6024V51.5716V51.5409V51.5102V51.4794V51.4487V51.418V51.3872V51.3565V51.3258V51.2951V51.2643V51.2336V51.2029V51.1722V51.1415V51.1108V51.08V51.0493V51.0186V50.9879V50.9572V50.9265V50.8958V50.8652V50.8345V50.8038V50.7731V50.7424V50.7117V50.681V50.6504V50.6197V50.589V50.5583V50.5277V50.497V50.4663V50.4357V50.405V50.3743V50.3437V50.313V50.2824V50.2517V50.2211V50.1904V50.1598V50.1291V50.0985V50.0678V50.0372V50.0065V49.9759V49.9453V49.9146V49.884V49.8534V49.8227V49.7921V49.7615V49.7309V49.7003V49.6696V49.639V49.6084V49.5778V49.5472V49.5166V49.486V49.4553V49.4247V49.3941V49.3635V49.3329V49.3023V49.2717V49.2411V49.2106V49.18V49.1494V49.1188V49.0882V49.0576V49.027V48.9964V48.9659V48.9353V48.9047V48.8741V48.8435V48.813V48.7824V48.7518V48.7213V48.6907V48.6601V48.6296V48.599V48.5684V48.5379V48.5073V48.4768V48.4462V48.4156V48.3851V48.3545V48.324V48.2934V48.2629V48.2323V48.2018V48.1713V48.1407V48.1102V48.0796V48.0491V48.0186V47.988V47.9575V47.9269V47.8964V47.8659V47.8354V47.8048V47.7743V47.7438V47.7132V47.6827V47.6522V47.6217V47.5912V47.5606V47.5301V47.4996V47.4691V47.4386V47.4081V47.3775V47.347V47.3165V47.286V47.2555V47.225V47.1945V47.164V47.1335V47.103V47.0725V47.042V47.0115V46.981V46.9505V46.92V46.8895V46.859V46.8285V46.798V46.7675V46.737V46.7065V46.676V46.6455V46.615V46.5845V46.5541V46.5236V46.4931V46.4626V46.4321V46.4016V46.3712V46.3407V46.3102V46.2797V46.2492V46.2188V46.1883V46.1578V46.1273V46.0969V46.0664V46.0359V46.0054V45.975V45.9445V45.914V45.8835V45.8531V45.8226V45.7921V45.7617V45.7312V45.7007V45.6703V45.6398V45.6093V45.5789V45.5484V45.5179V45.4875V45.457V45.4266V45.3961V45.3656V45.3352V45.3047V45.2743V45.2438V45.2133V45.1829V45.1524V45.122V45.0915V45.0611V45.0306V45.0001V44.9697V44.9392V44.9088V44.8783V44.8479V44.8174V44.787V44.7565V44.7261V44.6956V44.6652V44.6347V44.6043V44.5738V44.5434V44.5129V44.4825V44.452V44.4216V44.3911V44.3607V44.3302V44.2998V44.2693V44.2389V44.2084V44.178V44.1475V44.1171V44.0866V44.0562V44.0257V43.9953V43.9648V43.9344V43.904V43.8735V43.8431V43.8126V43.7822V43.7517V43.7213V43.6908V43.6604V43.6299V43.5995V43.569V43.5386V43.5082V43.4777V43.4473V43.4168V43.3864V43.3559V43.3255V43.295V43.2646V43.2341V43.2037V43.1732V43.1428V43.1123V43.0819V43.0515V43.021V42.9906V42.9601V42.9297V42.8992V42.8688V42.8383V42.8079V42.7774V42.747V42.7165V42.6861V42.6556V42.6252V42.5947V42.5643V42.5338V42.5034V42.4729V42.4425V42.412V42.3816V42.3511V42.3206V42.2902V42.2597V42.2293V42.1988V42.1684V42.1379V42.1075V42.077V42.0465V42.0161V41.9856V41.9552V41.9247V41.8942V41.8638V41.8333V41.8029V41.7724V41.7419V41.7115V41.681V41.6506V41.6201V41.5896V41.5592V41.5287V41.4982V41.4678V41.4373V41.4068V41.3764V41.3459V41.3154V41.2849V41.2545V41.224V41.1935V41.163V41.1326V41.1021V41.0716V41.0411V41.0107V40.9802V40.9497V40.9192V40.8887V40.8583V40.8278V40.7973V40.7668V40.7363V40.7058V40.6754V40.6449V40.6144V40.5839V40.5534V40.5229V40.4924V40.4619V40.4314V40.4009V40.3704V40.3399V40.3094V40.279V40.2485V40.218V40.1875V40.1569V40.1264V40.0959V40.0654V40.0349V40.0044V39.9739V39.9434V39.9129V39.8824V39.8519V39.8214V39.7908V39.7603V39.7298V39.6993V39.6688V39.6383V39.6077V39.5772V39.5467V39.5162V39.4856V39.4551V39.4246V39.3941V39.3635V39.333V39.3025V39.2719V39.2414V39.2108V39.1803V39.1498V39.1192V39.0887V39.0581V39.0276V38.9971V38.9665V38.936V38.9054V38.8749V38.8443V38.8138V38.7832V38.7526V38.7221V38.6915V38.661V38.6304V38.5998V38.5693V38.5387V38.5081V38.4776V38.447V38.4164V38.3858V38.3553V38.3247V38.2941V38.2635V38.233V38.2024V38.1718V38.1412V38.1106V38.08V38.0494V38.0188V37.9882V37.9576V37.927V37.8965V37.8658V37.8352V37.8046V37.774V37.7434V37.7128V37.6822V37.6516V37.621V37.5904V37.5597V37.5291V37.4985V37.4679V37.4373V37.4066V37.376V37.3454V37.3147V37.2841V37.2535V37.2228V37.1922V36.5623L28.1302 36.8302C22.428 39.5093 16.7647 39.4971 11.098 36.8375L10.5281 36.57V37.1996V37.2303V37.261V37.2916V37.3223V37.353V37.3836V37.4143V37.4449V37.4756V37.5062V37.5369V37.5675V37.5982V37.6288V37.6595V37.6901V37.7207V37.7514V37.782V37.8127V37.8433V37.8739V37.9046V37.9352V37.9658V37.9964V38.0271V38.0577V38.0883V38.1189V38.1495V38.1801V38.2108V38.2414V38.272V38.3026V38.3332V38.3638V38.3944V38.425V38.4556V38.4862V38.5168V38.5474V38.578V38.6086V38.6392V38.6698V38.7004V38.7309V38.7615V38.7921V38.8227V38.8533V38.8839V38.9144V38.945V38.9756V39.0062V39.0367V39.0673V39.0979V39.1284V39.159V39.1896V39.2201V39.2507V39.2813V39.3118V39.3424V39.3729V39.4035V39.434V39.4646V39.4951V39.5257V39.5562V39.5868V39.6173V39.6479V39.6784V39.709V39.7395V39.77V39.8006V39.8311V39.8616V39.8922V39.9227V39.9532V39.9838V40.0143V40.0448V40.0754V40.1059V40.1364V40.1669V40.1974V40.228V40.2585V40.289V40.3195V40.35V40.3805V40.4111V40.4416V40.4721V40.5026V40.5331V40.5636V40.5941V40.6246V40.6551V40.6856V40.7161V40.7466V40.7771V40.8076V40.8381V40.8686V40.8991V40.9296V40.9601V40.9906V41.0211V41.0516V41.0821V41.1125V41.143V41.1735V41.204V41.2345V41.265V41.2954V41.3259V41.3564V41.3869V41.4174V41.4478V41.4783V41.5088V41.5393V41.5697V41.6002V41.6307V41.6611V41.6916V41.7221V41.7525V41.783V41.8135V41.8439V41.8744V41.9049V41.9353V41.9658V41.9963V42.0267V42.0572V42.0876V42.1181V42.1485V42.179V42.2094V42.2399V42.2704V42.3008V42.3313V42.3617V42.3922V42.4226V42.453V42.4835V42.5139V42.5444V42.5748V42.6053V42.6357V42.6662V42.6966V42.727V42.7575V42.7879V42.8184V42.8488V42.8792V42.9097V42.9401V42.9705V43.001V43.0314V43.0618V43.0923V43.1227V43.1531V43.1836V43.214V43.2444V43.2749V43.3053V43.3357V43.3661V43.3966V43.427V43.4574V43.4878V43.5183V43.5487V43.5791V43.6095V43.64V43.6704V43.7008V43.7312V43.7616V43.7921V43.8225V43.8529V43.8833V43.9137V43.9442V43.9746V44.005V44.0354V44.0658V44.0962V44.1266V44.1571V44.1875V44.2179V44.2483V44.2787V44.3091V44.3395V44.3699V44.4004V44.4308V44.4612V44.4916V44.522V44.5524V44.5828V44.6132V44.6436V44.674V44.7044V44.7349V44.7653V44.7957V44.8261V44.8565V44.8869V44.9173V44.9477V44.9781V45.0085V45.0389V45.0693V45.0997V45.1301V45.1605V45.1909V45.2213V45.2517V45.2821V45.3125V45.3429V45.3733V45.4037V45.4341V45.4645V45.4949V45.5253V45.5557V45.5861V45.6165V45.6469V45.6773V45.7077V45.7381V45.7685V45.7989V45.8293V45.8597V45.8901V45.9205V45.9509V45.9813V46.0117V46.0421V46.0725V46.1029V46.1333V46.1637V46.1941V46.2245V46.2549V46.2853V46.3157V46.3461V46.3765V46.4069V46.4373V46.4677V46.4981V46.5285V46.5589V46.5893V46.6197V46.6501V46.6805V46.7109V46.7413V46.7717V46.8021V46.8325V46.8629V46.8933V46.9237V46.9541V46.9845V47.0149V47.0453V47.0757V47.1061V47.1365V47.1669V47.1973V47.2277V47.2581V47.2885V47.3189V47.3493V47.3797V47.4101V47.4405V47.471V47.5014V47.5318V47.5622V47.5926V47.623V47.6534V47.6838V47.7142V47.7446V47.775V47.8054V47.8358V47.8662V47.8966V47.927V47.9574V47.9879V48.0183V48.0487V48.0791V48.1095V48.1399V48.1703V48.2007V48.2311V48.2615V48.292V48.3224V48.3528V48.3832V48.4136V48.444V48.4744V48.5048V48.5353V48.5657V48.5961V48.6265V48.6569V48.6873V48.7178V48.7482V48.7786V48.809V48.8394V48.8699V48.9003V48.9307V48.9611V48.9916V49.022V49.0524V49.0828V49.1133V49.1437V49.1741V49.2045V49.235V49.2654V49.2958V49.3262V49.3567V49.3871V49.4175V49.448V49.4784V49.5088V49.5393V49.5697V49.6001V49.6306V49.661V49.6914V49.7219V49.7523V49.7828V49.8132V49.8436V49.8741V49.9045V49.935V49.9654V49.9958V50.0263V50.0567V50.0872V50.1176V50.1481V50.1785V50.209V50.2394V50.2699V50.3003V50.3308V50.3612V50.3917V50.4221V50.4526V50.4831V50.5135V50.544V50.5744V50.6049V50.6353V50.6658V50.6963V50.7267V50.7572V50.7877V50.8181V50.8486V50.8791V50.9095V50.94V50.9705V51.0009V51.0314V51.0619V51.0924V51.1228V51.1533V51.1838V51.2143V51.2448V51.2752V51.3057V51.3362V51.3667V51.3972V51.4277V51.4581V51.4886V51.5191V51.5496V51.5801V51.6106V51.6411V51.6716V51.7021V51.7326V51.7631V51.7936V51.8241V51.8546V51.8851V51.9156V51.9461V51.9766V52.0071V52.0376V52.0681V52.0986V52.1291V52.1596V52.1901V52.2207V52.2512V52.2817V52.3122V52.3427V52.3732V52.4038V52.4343V52.4648V52.4953V52.5259V52.5564V52.5869V52.6175V52.648V52.6785V52.709V52.7396V52.7701V52.8007V53.5088L11.1346 53.1432C11.1853 53.1127 11.2339 53.0839 11.2805 53.0563C11.3869 52.9932 11.4832 52.9362 11.5715 52.8776C12.0894 52.5342 12.6075 52.1909 13.1257 51.8476C15.2006 50.4731 17.2768 49.0975 19.3434 47.7063L19.3434 47.7063C19.499 47.6015 19.573 47.5879 19.6108 47.5879C19.6468 47.588 19.7187 47.6004 19.8694 47.7065L19.87 47.7069C20.6107 48.2264 21.3704 48.7245 22.1239 49.2184C22.4394 49.4253 22.7539 49.6314 23.0654 49.8381L23.0654 49.8381C23.9164 50.4027 24.7657 50.9669 25.6265 51.5387C26.4305 52.0728 27.2445 52.6136 28.0791 53.1674Z" fill="white" stroke="#8C9B47" stroke-width="0.8"/>
<path d="M13.2324 19.9531C13.2485 19.3426 13.5333 18.8922 14.0858 18.6418C14.6565 18.3817 15.2176 18.4472 15.6808 18.8761C16.2709 19.4221 16.846 19.9864 17.3941 20.5743C17.651 20.8506 17.7918 20.8527 18.0595 20.5797C19.5513 19.062 21.0647 17.5669 22.5684 16.0611C22.8113 15.8182 23.0661 15.6011 23.4165 15.529C24.0732 15.3958 24.7031 15.6645 25.0287 16.2212C25.348 16.7673 25.2716 17.5175 24.8019 18.0033C24.0571 18.7751 23.2875 19.5232 22.5297 20.282C21.342 21.4708 20.1565 22.6628 18.9656 23.8483C18.1121 24.6974 17.363 24.7007 16.5074 23.8558C15.5787 22.939 14.6554 22.0168 13.7311 21.0956C13.4162 20.7829 13.2162 20.4163 13.2324 19.9531Z" fill="white"/>
</svg>
