<svg width="56" height="51" viewBox="0 0 56 51" fill="none" xmlns="http://www.w3.org/2000/svg">
<path d="M10.399 43.3706C12.296 43.3647 14.0445 43.9155 15.7587 44.6871C17.5738 45.5038 19.4268 46.241 21.2704 46.9948C23.736 48.0027 26.1779 47.9208 28.5461 46.7064C33.412 44.2135 38.2625 41.6909 43.1177 39.179C45.9395 37.7188 48.76 36.2551 51.5817 34.795C52.5979 34.2691 53.1796 33.4572 53.1915 32.2986C53.2104 30.493 51.4915 29.1694 49.7417 29.6596C46.3989 30.5963 43.0643 31.5614 39.7262 32.5134C39.3273 32.6274 38.9309 32.7532 38.5261 32.847C37.7497 33.0251 37.0505 32.6416 36.8261 31.9317C36.5887 31.1862 36.9413 30.4431 37.7366 30.1915C38.9582 29.8045 40.1987 29.4792 41.4321 29.1278C44.0128 28.3942 46.5805 27.6107 49.1767 26.94C51.9011 26.236 54.6445 27.727 55.6404 30.3458C56.6174 32.9147 55.5526 35.8575 53.0822 37.1514C47.6465 40.0004 42.1859 42.802 36.7359 45.6225C34.4223 46.8203 32.124 48.0466 29.7926 49.2076C26.5186 50.8375 23.1935 50.8754 19.8352 49.4236C17.7352 48.5155 15.6234 47.6359 13.5044 46.7728C11.4555 45.9383 9.39113 45.9965 7.31727 46.723C6.03283 47.1729 4.73652 47.5884 3.44258 48.0074C2.4846 48.3172 1.71298 47.9932 1.45538 47.1931C1.19541 46.3811 1.62633 45.6522 2.58075 45.3602C4.39107 44.807 6.14442 44.0805 7.99035 43.6401C8.78333 43.4513 9.58819 43.3849 10.399 43.3706Z" fill="white"/>
<path d="M47.8917 12.5274C47.9 19.4399 42.2993 25.0501 35.3774 25.0632C28.4708 25.0762 22.8191 19.4482 22.8262 12.5654C22.8333 5.60785 28.4317 0 35.3714 0C42.2768 0 47.8846 5.61141 47.8917 12.5274ZM35.3228 2.81223C29.893 2.83598 25.6206 7.16294 25.6455 12.6129C25.6693 17.9905 30.0342 22.2984 35.426 22.2652C40.7988 22.2331 45.1222 17.8599 45.1021 12.48C45.0807 7.1119 40.7074 2.78849 35.3228 2.81223Z" fill="white"/>
<path d="M19.714 28.5188C16.9706 28.4761 14.4374 29.1634 11.91 29.8994C8.59328 30.8645 5.27059 31.8083 1.94791 32.7473C0.752502 33.0844 -0.211421 32.257 0.0402434 31.1305C0.183882 30.4918 0.661095 30.2081 1.24633 30.0419C4.05619 29.2465 6.86368 28.4464 9.67235 27.6463C11.7225 27.0623 13.7488 26.3809 15.8595 26.039C20.3206 25.3161 24.6405 25.8479 28.8214 27.5525C30.0631 28.0594 31.3214 28.5307 32.5477 29.072C34.9017 30.1107 36.1078 32.5704 35.5071 35.0194C34.9077 37.4648 32.6735 39.122 30.1427 38.9416C28.9378 38.8561 27.7886 38.4513 26.6217 38.1664C24.244 37.5859 21.8757 36.9674 19.5039 36.3656C18.5483 36.1234 18.0984 35.4954 18.2895 34.6656C18.4854 33.8204 19.2131 33.4322 20.1888 33.6744C23.3489 34.4614 26.5066 35.2604 29.6666 36.0462C31.5458 36.5139 33.0653 35.2509 32.8207 33.4346C32.7151 32.6559 32.3269 32.0172 31.6099 31.7204C28.6232 30.4823 25.6851 29.0863 22.417 28.7017C21.4911 28.5924 20.5675 28.4797 19.714 28.5188Z" fill="white"/>
<path d="M35.3522 20.462C34.6151 20.4501 34.0144 19.9207 33.9978 19.1728C33.9883 18.7597 33.8494 18.6576 33.4636 18.6053C32.838 18.5223 32.2337 18.3157 31.6473 18.0723C30.8508 17.7423 30.4982 16.998 30.7772 16.2501C31.049 15.5177 31.8325 15.1734 32.6314 15.4643C33.7425 15.8679 34.8703 16.116 36.0574 15.9261C36.2699 15.8916 36.4883 15.8406 36.6818 15.7504C36.9904 15.6079 37.2741 15.431 37.2848 15.0215C37.2955 14.6048 36.975 14.5075 36.6925 14.3769C35.9161 14.0208 35.0709 13.8926 34.2554 13.6646C33.6452 13.4937 33.0469 13.3002 32.502 12.9678C30.3106 11.63 30.2275 8.63373 32.3489 7.18191C32.6065 7.00503 32.8914 6.84952 33.1858 6.74981C33.6903 6.57768 34.05 6.42217 34.0274 5.72653C34.0049 5.04988 34.7444 4.56792 35.4567 4.60354C36.1571 4.63796 36.7138 5.11755 36.7281 5.83337C36.7388 6.34145 36.9631 6.46253 37.3917 6.51476C37.762 6.55987 38.1324 6.65365 38.485 6.77474C39.1901 7.01572 39.5391 7.71967 39.3456 8.44142C39.1581 9.143 38.4696 9.59528 37.7561 9.44333C37.0011 9.28307 36.2497 9.11569 35.4721 9.11569C34.9724 9.11569 34.4821 9.17505 34.0381 9.42315C33.7865 9.56323 33.612 9.76029 33.6096 10.082C33.6072 10.4037 33.8304 10.5307 34.0607 10.6435C34.7397 10.9747 35.4876 11.0875 36.2081 11.2821C36.7423 11.427 37.2694 11.5884 37.7799 11.8045C39.3219 12.4562 40.0888 13.5364 40.0626 15.0678C40.0353 16.6846 39.1415 17.6984 37.7371 18.3418C37.6113 18.3988 37.4819 18.4617 37.3477 18.4819C36.918 18.5472 36.7388 18.7466 36.7269 19.2179C36.7103 19.9788 36.1084 20.4738 35.3522 20.462Z" fill="white"/>
</svg>
