<svg width="51" height="53" viewBox="0 0 51 53" fill="none" xmlns="http://www.w3.org/2000/svg">
<path d="M0.730878 25.2686C0.730878 19.0549 0.736252 12.8423 0.727654 6.62869C0.724429 4.39302 1.57893 2.59373 3.40831 1.2964C4.52184 0.507466 5.79015 0.188238 7.15305 0.191463C10.5377 0.200062 13.9224 0.193613 17.3071 0.193613C22.4652 0.193613 27.6223 0.183939 32.7805 0.198987C35.9953 0.20866 38.4492 2.21646 39.0543 5.28943C39.1726 5.89134 39.1478 6.50185 39.1478 7.11021C39.15 13.2164 39.1564 19.3215 39.1339 25.4277C39.1317 26.0005 39.2682 26.1951 39.8594 26.2908C45.3583 27.1839 49.5695 31.3167 50.7422 36.9134C51.8159 42.0372 49.4685 47.6801 44.9015 50.5295C40.2388 53.4391 35.459 53.4649 30.691 50.6961C30.3847 50.5187 30.0891 50.4338 29.7344 50.4338C22.1772 50.4414 14.6189 50.4489 7.06169 50.4349C4.6519 50.4306 2.79027 49.3805 1.54668 47.3082C0.934023 46.2871 0.724429 45.1531 0.726579 43.9633C0.736252 37.7314 0.730878 31.4994 0.730878 25.2686ZM27.0666 47.4587C26.9 47.2125 26.8033 47.0674 26.7044 46.9234C25.4071 45.0242 24.6095 42.9304 24.4236 40.6399C23.8432 33.4739 28.6047 27.4054 35.703 26.2402C36.0802 26.1779 36.1985 26.0693 36.1974 25.6781C36.1845 19.3215 36.192 12.9638 36.1856 6.60719C36.1834 4.46611 34.8754 3.17307 32.7267 3.172C24.2011 3.16877 15.6755 3.16985 7.14983 3.172C5.0066 3.17307 3.69421 4.47363 3.69314 6.60934C3.68992 19.0721 3.68992 31.536 3.69314 43.9988C3.69421 46.1635 5.01089 47.4565 7.18745 47.4576C13.5999 47.4587 20.0114 47.4576 26.4239 47.4576C26.6002 47.4587 26.7764 47.4587 27.0666 47.4587ZM37.6871 49.7169C43.401 49.7105 48.0357 45.0596 48.011 39.3565C47.9863 33.6394 43.3591 29.0531 37.6226 29.0606C31.9486 29.0671 27.3181 33.7147 27.3246 39.3963C27.331 45.1091 31.9636 49.7234 37.6871 49.7169Z" fill="white"/>
<path d="M19.8856 23.4876C16.358 23.4876 12.8304 23.4908 9.30276 23.4854C8.13978 23.4833 7.40782 22.5664 7.74424 21.5453C7.92912 20.9832 8.33863 20.6661 8.90937 20.5586C9.10069 20.5221 9.30169 20.5264 9.49838 20.5264C16.4462 20.5242 23.3939 20.5242 30.3428 20.5242C31.3628 20.5242 31.9239 20.8467 32.1431 21.5507C32.4591 22.5643 31.753 23.4811 30.6298 23.4843C27.8717 23.4929 25.1147 23.4876 22.3567 23.4876C21.5323 23.4886 20.709 23.4886 19.8856 23.4876Z" fill="white"/>
<path d="M19.9501 13.9161C23.5132 13.9161 27.0774 13.9118 30.6405 13.9193C31.7884 13.9215 32.4935 14.8824 32.1248 15.9046C31.9034 16.5204 31.3477 16.8655 30.5448 16.8665C27.7696 16.8698 24.9933 16.8698 22.218 16.8698C17.938 16.8698 13.658 16.8698 9.37797 16.8676C8.55679 16.8676 8.00863 16.5462 7.77109 15.9422C7.37554 14.9372 8.08064 13.9236 9.206 13.9204C12.4112 13.9107 15.6174 13.9161 18.8226 13.9161C19.1977 13.915 19.5739 13.915 19.9501 13.9161Z" fill="white"/>
<path d="M17.465 42.9229C16.8556 42.9229 16.2472 42.9186 15.6389 42.925C15.0058 42.9315 14.4716 42.7444 14.1427 42.1662C14.032 41.9716 13.9213 41.934 13.7117 42.0286C13.3871 42.1758 13.0528 42.3102 12.7099 42.4016C11.9909 42.5929 11.3718 42.3521 11.0332 41.6975C10.872 41.3858 10.7527 41.4063 10.5183 41.5675C10.298 41.7201 10.0669 41.8609 9.82937 41.9834C9.1232 42.3446 8.32889 42.1285 7.90003 41.4697C7.47547 40.8172 7.59048 39.9638 8.2601 39.5156C9.25433 38.8503 10.2787 38.2215 11.3256 37.6432C12.1607 37.1821 13.1227 37.5884 13.3871 38.5031C13.5021 38.9019 13.6354 38.8943 13.9288 38.746C14.0868 38.6654 14.2577 38.6031 14.4286 38.5547C15.1778 38.344 15.9173 38.6783 16.2139 39.4511C16.3762 39.8714 16.5976 39.9649 17.0061 39.9509C17.8283 39.9219 18.6538 39.9197 19.4771 39.9488C20.6337 39.9896 21.3474 40.9537 20.9722 41.9458C20.7207 42.6112 20.1951 42.9057 19.5072 42.9196C18.8269 42.9336 18.1454 42.9229 17.465 42.9229Z" fill="white"/>
<path d="M19.9514 10.2627C17.9995 10.2627 16.0465 10.2649 14.0946 10.2616C13.0961 10.2595 12.3985 9.65864 12.3802 8.79662C12.362 7.93782 13.0595 7.29077 14.0484 7.28862C17.9888 7.28217 21.9302 7.27895 25.8706 7.29077C27.04 7.29399 27.7526 8.22911 27.4087 9.2502C27.1948 9.88651 26.6369 10.2595 25.863 10.2616C23.8929 10.2659 21.9216 10.2627 19.9514 10.2627Z" fill="white"/>
<path d="M15.2014 27.1409C17.1351 27.1409 19.0698 27.1388 21.0034 27.142C22.0439 27.1442 22.6877 27.6999 22.6974 28.592C22.7081 29.5185 22.0611 30.1086 21.0024 30.1097C17.1168 30.114 13.2302 30.114 9.34464 30.1097C8.35256 30.1086 7.65499 29.482 7.65821 28.6189C7.66036 27.7472 8.34074 27.1442 9.34572 27.1409C11.2976 27.1366 13.2495 27.1409 15.2014 27.1409Z" fill="white"/>
<path d="M32.2324 39.9531C32.2485 39.3426 32.5333 38.8922 33.0858 38.6418C33.6565 38.3817 34.2176 38.4472 34.6808 38.8761C35.2709 39.4221 35.846 39.9864 36.3941 40.5743C36.651 40.8506 36.7918 40.8527 37.0595 40.5797C38.5513 39.062 40.0647 37.5669 41.5684 36.0611C41.8113 35.8182 42.0661 35.6011 42.4165 35.529C43.0732 35.3958 43.7031 35.6645 44.0287 36.2212C44.348 36.7673 44.2716 37.5175 43.8019 38.0033C43.0571 38.7751 42.2875 39.5232 41.5297 40.282C40.342 41.4708 39.1565 42.6628 37.9656 43.8483C37.1121 44.6974 36.363 44.7007 35.5074 43.8558C34.5787 42.939 33.6554 42.0168 32.7311 41.0956C32.4162 40.7829 32.2162 40.4163 32.2324 39.9531Z" fill="white"/>
</svg>
