<svg width="75" height="75" viewBox="0 0 75 75" fill="none" xmlns="http://www.w3.org/2000/svg">
<circle cx="37.5" cy="37.5" r="37.5" fill="#8C9B47"/>
<path d="M27.6528 27.007C25.2297 27.007 22.8066 27.0125 20.3827 27C20.088 26.9985 19.9985 27.0622 20.0001 27.3741C20.0125 30.8462 20.0001 34.3184 20.011 37.7905C20.018 40.0846 20.1393 42.3716 20.6315 44.6221C21.0833 46.6859 21.8128 48.616 23.3929 50.1153C24.634 51.2934 26.1465 51.9218 27.7912 52.2779C28.9966 52.5392 30.2221 52.6294 31.4508 52.6955C31.7292 52.7103 31.7969 52.6302 31.7961 52.3596C31.7852 50.3253 31.7875 48.2918 31.7937 46.2575C31.7945 46.0288 31.7588 45.9231 31.4858 45.8966C30.9469 45.8453 30.4072 45.7582 29.88 45.6346C28.7563 45.3709 28.1109 44.5871 27.7003 43.5575C27.3317 42.6329 27.2018 41.6593 27.0914 40.6833C27.033 40.1701 27.0424 39.6491 26.9903 39.1343C26.9599 38.8396 27.0416 38.7657 27.3394 38.7672C29.8535 38.7797 32.3676 38.7688 34.881 38.7812C35.2122 38.7828 35.3343 38.7291 35.332 38.3535C35.3149 34.7126 35.3157 31.0725 35.332 27.4316C35.3336 27.0607 35.2192 26.9985 34.8825 27C32.4734 27.0132 30.0627 27.007 27.6528 27.007Z" fill="white"/>
<path d="M47.1761 27.007C44.7406 27.007 42.3058 27.0078 39.8702 27.0055C39.6704 27.0055 39.5133 26.9728 39.5164 27.2893C39.5553 31.368 39.455 35.4483 39.5778 39.527C39.6416 41.6499 39.8655 43.7542 40.4418 45.8134C41.4348 49.3594 43.6822 51.5485 47.3138 52.288C48.5222 52.5338 49.7447 52.631 50.9725 52.6971C51.2758 52.7134 51.3365 52.6232 51.3349 52.3362C51.3225 50.3159 51.324 48.2956 51.3334 46.2753C51.3349 46.0187 51.2719 45.9308 50.9982 45.8966C50.4228 45.8235 49.8419 45.7784 49.2773 45.6221C47.9849 45.2644 47.3503 44.3048 46.9732 43.1158C46.5501 41.7837 46.4506 40.4049 46.4 39.0184C46.3884 38.6996 46.5913 38.7758 46.7562 38.7758C48.7773 38.7735 50.7976 38.7742 52.8187 38.7742C53.4019 38.7742 53.9843 38.7641 54.5676 38.7797C54.7876 38.7851 54.8467 38.7206 54.846 38.5013C54.8405 34.757 54.8382 31.0142 54.8499 27.2714C54.8506 26.9821 54.7114 27.0047 54.5209 27.0047C52.0729 27.0078 49.6249 27.007 47.1761 27.007Z" fill="white"/>
</svg>
