<svg width="28" height="21" viewBox="0 0 28 21" fill="none" xmlns="http://www.w3.org/2000/svg">
<path d="M14.4437 0.00073939C17.8861 0.00073939 21.3291 -0.00152499 24.7715 0.00187158C26.3141 0.00356987 27.5454 0.971026 27.9128 2.45986C27.9762 2.7163 27.9999 2.97783 27.9999 3.24333C27.9982 8.02457 28.0011 12.8052 27.9977 17.5865C27.9965 19.4342 26.6119 20.8245 24.7687 20.8257C17.8646 20.8291 10.9605 20.8291 4.05638 20.8257C2.21544 20.8245 0.83077 19.4297 0.829638 17.5837C0.826807 12.8024 0.826807 8.02174 0.829638 3.2405C0.83077 1.38428 2.22223 0.00243767 4.08695 0.00130548C7.53956 -0.000958896 10.9916 0.00073939 14.4437 0.00073939ZM24.866 19.0063C24.8411 18.9644 24.8349 18.9468 24.8236 18.9355C22.3243 16.4328 19.8233 13.9318 17.3279 11.4251C17.2017 11.2983 17.136 11.3074 17.0154 11.4251C16.3882 12.0382 15.7525 12.6428 15.1196 13.2496C14.6576 13.6923 14.1714 13.6889 13.7043 13.2417C13.0097 12.5765 12.31 11.9159 11.6234 11.2423C11.4654 11.0871 11.3839 11.0934 11.2328 11.2541C9.20954 13.4036 7.17896 15.5463 5.15064 17.6906C4.74645 18.1175 4.34509 18.5466 3.91259 19.0063C10.9231 19.0063 17.8804 19.0063 24.866 19.0063ZM4.47982 1.82526C4.46057 1.84621 4.44189 1.86715 4.42264 1.8881C4.46453 1.90848 4.51492 1.9198 4.54662 1.95037C7.74562 5.01917 10.9424 8.08967 14.1402 11.1596C14.4159 11.424 14.4193 11.4228 14.6961 11.1568C17.7304 8.24365 20.7647 5.33052 23.7972 2.41513C23.9909 2.22946 24.1675 2.02566 24.3566 1.82526C17.7327 1.82526 11.1065 1.82526 4.47982 1.82526ZM26.1765 17.7433C26.1833 17.6403 26.1873 17.6063 26.1873 17.5729C26.1873 12.773 26.1873 7.97249 26.1873 3.17257C26.1873 3.02652 26.1737 2.88443 26.0911 2.7497C26.056 2.77461 26.0311 2.78763 26.0118 2.80631C23.5567 5.16409 21.1026 7.52414 18.643 9.87683C18.5003 10.0133 18.5286 10.0755 18.6503 10.1967C21.0607 12.6015 23.4667 15.0102 25.8731 17.4189C25.9631 17.5095 26.048 17.6057 26.1765 17.7433ZM2.67681 17.6335C2.77814 17.535 2.88343 17.441 2.98023 17.3385C5.29613 14.8953 7.60863 12.4492 9.93132 10.0127C10.0977 9.83777 10.0825 9.76645 9.91829 9.60964C7.57183 7.37017 5.23273 5.12277 2.89136 2.8782C2.84097 2.83008 2.80644 2.74856 2.67681 2.76838C2.67681 7.71775 2.67681 12.6716 2.67681 17.6335Z" fill="#8C8C8C"/>
</svg>
